<svg width="667" height="408" viewBox="0 0 667 408" fill="none" xmlns="http://www.w3.org/2000/svg">
    <path opacity="0.6" d="M582.836 401.791C582.836 401.791 631.934 413.457 656.113 360.631C687.486 292.086 643.449 226.991 567.519 222.308C458 215.544 518.695 40.4704 345.882 87.9837C297.277 101.348 191.587 32.3918 129.36 149.217C118.775 169.071 87.1555 168.113 45.0054 201.988C-29.3385 261.77 -2.56045 402.448 60.0492 403.078C122.714 403.708 582.836 401.791 582.836 401.791Z" fill="white"/>
    <path d="M71.0176 402.804C71.0176 402.804 73.2878 387.824 102.418 383.799C131.548 379.773 158.627 347.458 206.686 352.141C254.744 356.824 294.596 386.263 349.274 377.226C403.951 368.216 438.196 379.691 450.45 388.755C462.704 397.82 513.47 386.619 517.218 403.242L71.0176 402.804Z" fill="#74B570"/>
    <path d="M102.273 327.396C102.273 327.396 117.63 318.788 110.454 307.109C110.454 307.109 104.717 299.942 98.5809 298.085C98.5809 298.085 101.857 315.508 98.5809 315.925C95.3049 316.341 96.3276 296.246 96.3276 296.246C96.3276 296.246 80.156 288.454 73.8122 289.079C73.8122 289.079 83.8479 306.085 80.572 305.686C77.2961 305.27 66.0297 288.055 66.0297 288.055C66.0297 288.055 49.4421 284.983 46.7902 294.823C44.1209 304.662 48.4195 309.573 50.8807 310.198C53.342 310.806 69.0976 310.615 68.699 312.662C68.283 314.71 57.6406 317.99 51.7127 316.15C51.7127 316.15 58.2645 332.341 66.8617 331.526C75.4588 330.71 78.128 325.383 83.4492 324.966C88.7704 324.55 92.6703 325.99 90.0011 327.43C87.3318 328.871 78.336 327.899 74.0375 331.561C69.7389 335.222 66.255 337.478 74.2455 339.109C82.236 340.758 96.5529 339.717 99.4302 333.574C102.273 327.396 102.273 327.396 102.273 327.396Z" fill="#9CD499"/>
    <path d="M54.3643 297.876C54.3643 297.876 97.3498 311.811 102.272 327.395C102.272 327.395 102.064 334.371 106.363 342.354V345.426C106.363 345.426 101.856 334.979 99.3951 333.538C99.3951 333.538 109.015 320.002 54.3643 297.876Z" fill="#9CD499"/>
    <path d="M106.363 342.354C106.363 342.354 113.001 352.437 109.205 364.706L107.507 364.255C107.507 364.255 109.171 350.736 105.687 343.934C102.22 337.131 106.363 342.354 106.363 342.354Z" fill="#9CD499"/>
    <path d="M126.695 315.508C126.695 315.508 106.45 304.159 115.896 288.766C115.896 288.766 123.453 279.309 131.548 276.879C131.548 276.879 127.232 299.838 131.548 300.393C135.864 300.931 134.512 274.45 134.512 274.45C134.512 274.45 155.831 264.176 164.203 264.992C164.203 264.992 150.978 287.413 155.294 286.875C159.61 286.337 174.447 263.638 174.447 263.638C174.447 263.638 196.304 259.577 199.822 272.558C203.323 285.521 197.656 292.011 194.432 292.827C191.19 293.643 170.408 293.365 170.946 296.072C171.483 298.779 185.522 303.1 193.34 300.671C193.34 300.671 184.708 322.016 173.372 320.94C162.036 319.864 158.535 312.836 151.515 312.298C144.496 311.76 139.365 313.652 142.884 315.543C146.385 317.435 158.258 316.168 163.926 320.992C169.594 325.816 174.187 328.784 163.648 330.953C153.127 333.122 134.234 331.769 130.456 323.665C126.695 315.508 126.695 315.508 126.695 315.508Z" fill="#74B570"/>
    <path d="M189.839 276.602C189.839 276.602 133.16 294.98 126.695 315.509C126.695 315.509 126.973 324.689 121.305 335.24V339.301C121.305 339.301 127.25 325.522 130.474 323.631C130.474 323.613 117.786 305.791 189.839 276.602Z" fill="#9CD499"/>
    <path d="M121.287 335.241C121.287 335.241 112.551 348.534 117.526 364.707L119.779 364.1C119.779 364.1 117.595 346.278 122.171 337.323C126.747 328.369 121.287 335.241 121.287 335.241Z" fill="#9CD499"/>
    <path d="M126.019 399.778C147.91 399.778 165.659 382.008 165.659 360.09H86.3613C86.3613 382.008 104.11 399.778 126.019 399.778Z" fill="#F39892"/>
    <path d="M135.76 399.483C134.148 399.691 132.502 399.795 130.838 399.795C108.946 399.795 91.1973 382.025 91.1973 360.107H101.042C101.042 380.341 116.191 397.053 135.76 399.483Z" fill="#E2847D"/>
    <path d="M166.214 401.791H85.8066C85.8066 399.084 87.9906 396.897 90.6945 396.897H161.309C164.013 396.897 166.214 399.101 166.214 401.791Z" fill="#E2847D"/>
    <path d="M166.56 360.09H85.0605V361.305H166.56V360.09Z" fill="#E2847D"/>
    <path d="M180.735 93.7967L212.524 128.597C192.626 143.602 180.136 173.065 213.448 208.088L168.673 229.799C137.294 174.827 141.726 131.403 180.735 93.7967Z" fill="#A2DFF2"/>
    <path d="M162 217.173L192.848 217.669L198.392 187.283C215.33 222.083 255.383 236.626 301.202 221.792L324.334 264.805C258.206 294.935 191.274 279.468 162 217.173Z" fill="#A2DFF2"/>
    <path d="M420.729 171.183C445.743 121.754 511.751 103.515 559.212 130.582L607.324 114.653C551.137 39.6968 449.028 53.9147 385.586 128.82L420.729 171.183Z" fill="#A2DFF2"/>
    <path d="M531.718 223.52L552.129 271.204C626.607 240.185 649.157 135.133 581.9 88.8521L582.396 119.752L550.743 126.339C597.367 148.427 576.596 211.099 531.718 223.52Z" fill="#25A9E0"/>
    <path d="M398.777 237.002C469.337 287.749 531.084 294.37 580.325 254.043L545.679 241.725L555.328 210.859C512.127 240.852 471.971 231.083 433.424 200.388L398.777 237.002Z" fill="#A2DFF2"/>
    <path d="M180.735 93.7967V127.229L212.542 128.597C233.159 115.218 263.014 116.296 300.604 128.324L322.453 79.9039C265.324 55.4546 218.496 61.2889 180.735 93.7967Z" fill="#25A9E0"/>
    <path d="M300.603 128.341L282.741 91.1277L322.452 79.921C348.253 93.369 369.024 109.845 385.603 128.854C403.859 169.061 428.924 203.4 460.268 218.045L419.137 218.473L425.468 254.351C409.351 244.702 393.798 233.871 380.111 222.049L349.228 167.128C338.449 150.771 323.41 137.443 300.603 128.341Z" fill="#0E85AA"/>
    <path d="M385.586 128.837C373.507 141.754 365.602 160.797 354.242 174.331C336.14 195.923 313.555 223.811 272.801 227.438L306.061 244.65L286.249 277.124C352.702 263.916 399.205 220.56 420.712 171.183V123.653L385.586 128.837Z" fill="#25A9E0"/>
    <path d="M327.038 390.146C327.038 390.146 326.149 394.868 325.704 399.556C325.533 401.387 326.919 402.995 328.766 403.081C335.011 403.406 348.357 404.039 353.147 403.868C353.866 403.851 354.345 403.115 354.088 402.431C353.866 401.866 353.438 401.404 352.891 401.147L330.939 390.796L327.038 390.146Z" fill="#252525"/>
    <path d="M326.387 387.357L327.003 393.02C327.003 393.02 330.852 394.851 333.504 392.849L331.964 386.519L326.387 387.357Z" fill="#F09959"/>
    <path d="M327.909 280.885C327.601 282.357 325.651 354.678 333.076 387.169C333.196 387.699 332.922 388.247 332.426 388.435C331.228 388.914 328.902 389.581 326.113 389.65C325.257 389.667 324.487 389.102 324.248 388.264C322.109 380.719 311.878 342.941 310.834 306.943C309.671 266.702 310.851 305.574 310.851 305.574L311.997 280.714L327.909 280.885Z" fill="#2F333A"/>
    <path d="M301.648 392.37C301.648 392.37 300.296 394.748 298.944 401.096C298.705 402.242 299.492 403.354 300.655 403.474C302.708 403.697 305.891 403.987 308.423 403.987C309.586 403.987 310.51 402.978 310.391 401.814C310.134 399.488 309.296 395.689 306.609 392.695L301.648 392.37Z" fill="#252525"/>
    <path d="M297.285 282.802C290.595 320.904 297.764 377.126 300.245 388.144C300.399 388.811 300.929 389.342 301.613 389.462C302.777 389.667 304.676 389.838 306.558 389.308C307.208 389.119 307.67 388.538 307.704 387.87C308.132 378.991 308.029 324.429 314.12 302.922C314.428 301.827 315.113 300.886 316.037 300.236L327.551 292.212L328.561 279.072L297.285 282.802Z" fill="#4E4E4E"/>
    <path d="M338.261 210.874C319.321 210.377 298.362 215.476 298.362 215.476C292.391 248.377 296.702 286.446 296.702 286.446C311.331 290.432 327.944 284.393 327.944 284.393C330.511 270.637 342.265 231.987 342.265 231.987C351.538 230.926 359.186 228.325 365.499 224.852C360.76 219.257 358.57 212.157 357.629 207.982C350.888 209.984 344.113 211.028 338.261 210.874Z" fill="url(#paint0_linear_2503_3571)"/>
    <path d="M394.5 183.498C392.652 181.24 390.291 182.267 390.291 182.267C387.383 194.021 372.686 203.431 357.612 207.948C358.553 212.14 360.743 219.223 365.483 224.818C390.548 211.062 394.5 183.498 394.5 183.498Z" fill="#F09959"/>
    <path d="M394.036 184.08C394.224 184.696 391.966 185.62 390.648 183.071C390.614 181.856 389.93 176.655 390.666 175.662C394.584 170.427 402.129 163.908 402.129 163.908C403.378 165.174 402.334 166.389 402.334 166.389L398.673 170.136C399.426 171.522 400.332 172.685 400.76 174.345C401.085 175.611 400.863 176.946 400.213 178.092C399.562 179.238 398.673 180.727 397.852 181.873C396.26 184.08 394.036 184.08 394.036 184.08Z" fill="#F09959"/>
    <path d="M397.066 172.583L393.73 175.354L392.669 178.143L395.595 181.445C395.595 181.445 396.638 175.902 397.391 174.721C398.127 173.524 397.75 172.925 397.066 172.583Z" fill="#F09959"/>
    <path d="M305.446 233.903L298.345 215.493C298.345 215.493 280.534 227.35 277.472 242.577C280.808 242.851 286.899 243.775 292.819 246.855C294.205 239.635 305.446 233.903 305.446 233.903Z" fill="url(#paint1_linear_2503_3571)"/>
    <path d="M320.758 251.303C320.758 251.303 300.774 262.339 294.17 252.689C292.801 250.687 292.476 248.703 292.836 246.82C286.916 243.758 280.825 242.834 277.488 242.543C276.565 247.128 276.992 252.022 279.644 256.983C291.193 278.576 323.342 256.214 323.342 256.214L320.758 251.303Z" fill="#F09959"/>
    <path d="M319.219 195.321L313.025 212.704C312.922 212.995 313.042 213.32 313.299 213.457C314.941 214.381 320.827 217.067 328.013 212.602C328.766 212.14 329.279 211.37 329.399 210.497L331.503 195.424L319.219 195.321Z" fill="#F09959"/>
    <path d="M335.323 197.678C331.322 202.496 322.03 200.541 317.884 198.961L319.34 195.288C323.936 194.572 333.568 194.049 335.323 197.678Z" fill="#E38540"/>
    <path d="M332.496 179.29C332.496 179.29 338.997 191.814 338.108 196.844C337.218 201.874 329.005 201.429 321.888 197.272L317.012 183.772L332.496 179.29Z" fill="#F09959"/>
    <path d="M322.246 190.667C322.537 190.548 322.656 190.188 322.485 189.915C321.955 189.093 320.98 187.434 320.689 185.979C320.689 185.979 319.508 185.209 323.734 184.234C327.96 183.259 334.274 181.753 335.625 178.177C336.943 174.687 333.641 165.842 328.166 172.822C327.96 173.079 327.55 173.096 327.344 172.822C326.472 171.659 324.162 169.246 320.911 170.666C317.866 172.001 317.507 174.208 317.541 175.337C317.558 175.662 317.25 175.919 316.925 175.851C315.402 175.543 311.724 175.252 309.978 179.016C308.541 182.113 309.431 183.875 310.269 184.73C310.543 185.004 310.406 185.466 310.047 185.586C309.037 185.877 307.737 186.732 307.84 189.076C307.994 192.344 311.638 192.087 312.665 191.951C312.836 191.933 313.007 191.985 313.127 192.122C313.999 193.114 317.968 197.323 322.297 197.87C322.674 197.922 322.964 197.545 322.845 197.186L321.014 191.711C320.928 191.454 321.048 191.181 321.305 191.078L322.246 190.667Z" fill="#2F333A"/>
    <path d="M323 191.454C323 191.454 318.312 188.169 317.952 190.89C317.576 193.61 322.161 194.876 324.437 193.884L323 191.454Z" fill="#F09959"/>
    <path d="M316.668 268.755L327.549 230.738C327.669 230.31 328.045 229.985 328.49 229.933C330.458 229.711 336.172 229.061 342.777 228.496C350.715 227.829 359.954 227.281 365.464 227.743C366.251 227.812 366.73 228.633 366.37 229.352C363.239 235.699 350.339 261.5 343.872 269.952C343.649 270.226 343.324 270.397 342.982 270.397L317.728 270.158C316.993 270.175 316.462 269.456 316.668 268.755Z" fill="#4E4E4E"/>
    <path d="M319.303 259.567C319.303 259.567 317.78 253.339 318.396 251.115C319.012 248.908 320.192 246.068 324.145 246.684C328.097 247.317 332.751 248.976 332.751 248.976C332.751 248.976 332.511 251.851 329.517 250.927L331.382 252.364C331.382 252.364 331.108 254.674 328.576 253.442L330.304 255.358C330.304 255.358 329.209 257.257 327.344 256.042C325.479 254.845 324.589 260.32 319.303 259.567Z" fill="#F09959"/>
    <path d="M342.044 239.857C342.044 241.619 343.481 243.056 345.243 243.056C347.006 243.056 348.443 241.619 348.443 239.857C348.443 238.095 347.006 236.657 345.243 236.657C343.481 236.675 342.044 238.095 342.044 239.857Z" fill="#969696"/>
    <path d="M199.981 348.348C198.818 350.059 194.215 388.931 193.497 403.286C193.445 404.261 194.232 405.065 195.19 405.065C196.029 405.065 196.747 404.449 196.867 403.628L205.302 349.58L199.981 348.348Z" fill="#252525"/>
    <path d="M237.04 348.348C238.203 350.059 242.806 388.931 243.524 403.286C243.576 404.261 242.789 405.065 241.83 405.065C240.992 405.065 240.273 404.449 240.154 403.628L231.719 349.58L237.04 348.348Z" fill="#252525"/>
    <path d="M193.001 345.302V345.73C192.967 348.775 195.602 351.273 198.887 351.342L237.862 351.992C241.096 352.043 243.799 349.699 243.97 346.705L243.987 346.312C244.158 343.181 241.489 340.546 238.119 340.477L199.126 339.776C195.773 339.742 193.036 342.205 193.001 345.302Z" fill="#252525"/>
    <path d="M275.126 401.866C268.197 401.866 265.134 401.267 263.766 400.737C264.039 401.883 265.049 402.773 266.332 402.773H290.85C291.671 402.773 292.201 401.986 291.996 401.267C289.19 401.49 283.253 401.866 275.126 401.866Z" fill="#252525"/>
    <path d="M291.979 401.267C291.945 401.13 291.877 400.976 291.774 400.857C289.909 398.478 286.162 394.731 281.047 394.8C273.57 394.902 270.969 395.724 265.152 394.851L263.783 399.402C263.646 399.864 263.646 400.326 263.749 400.754C265.118 401.301 268.18 401.883 275.11 401.883C283.254 401.866 289.191 401.49 291.979 401.267Z" fill="#252525"/>
    <path d="M266.845 389.941L265.168 395.655C265.168 395.655 268.898 397.349 272.166 395.997L272.816 391.036L266.845 389.941Z" fill="#F09959"/>
    <path d="M317.659 398.273C312.252 402.619 309.498 404.073 308.095 404.518C309.019 405.237 310.37 405.288 311.363 404.501L330.474 389.154C331.124 388.64 331.038 387.699 330.44 387.272C328.386 389.154 323.989 393.174 317.659 398.273Z" fill="#252525"/>
    <path d="M330.423 387.237C330.304 387.152 330.167 387.083 330.013 387.032C327.07 386.348 321.817 385.8 317.882 389.051C312.116 393.807 310.594 396.083 305.529 399.043L307.292 403.423C307.48 403.868 307.754 404.227 308.096 404.501C309.499 404.056 312.27 402.602 317.66 398.256C323.99 393.174 328.387 389.154 330.423 387.237Z" fill="#4E4E4E"/>
    <path d="M230.864 324.754C230.864 324.754 272.354 328.141 280.857 332.145C289.361 336.149 273.911 392.302 273.911 392.302C273.911 392.302 271.601 393.414 266.434 391.806C266.434 391.806 271.721 350.367 267.786 341.384L222.856 334.044L230.864 324.754Z" fill="#2F333A"/>
    <path d="M301.389 391.155C301.782 391.515 305.512 399.043 305.512 399.043C305.512 399.043 309.67 398.136 310.525 395.518L306.778 388.709L301.389 391.155Z" fill="#F09959"/>
    <path d="M205.867 324.412C205.867 324.412 204.516 327.662 204.567 331.991C204.635 337.962 209.443 342.821 215.414 343.112L264.467 345.354C265.511 345.405 266.383 346.124 266.64 347.116C267.786 351.581 273.432 365.269 300.961 392.576C301.697 393.294 302.843 393.431 303.716 392.866L307.634 390.386C308.045 390.129 308.181 389.581 307.925 389.171L279.369 340.409C277.864 337.928 275.451 336.149 272.662 335.43L230.864 324.737L205.867 324.412Z" fill="#4E4E4E"/>
    <path d="M254.202 248.223C254.202 248.223 248.949 257.514 243.594 262.014L254.664 268.19C254.664 268.19 257.162 258.352 262.859 255.478L254.202 248.223Z" fill="#F09959"/>
    <path d="M261 257C257.8 259.8 252.667 256.167 250.5 254L252 251.5C254.833 252 260.6 253.8 261 257Z" fill="#E38540"/>
    <path d="M204.977 324.754C204.977 324.754 218.219 327.988 230.863 324.754C230.863 324.754 248.554 300.972 255.398 294.504C255.398 294.504 266.314 311.734 290.609 314.163L291.961 311.135C291.961 311.135 272.627 302.221 266.673 288.516C260.719 274.812 258.324 268.977 252.917 265.401C249.547 263.177 247.528 261.654 246.484 260.833C245.919 260.371 245.132 260.32 244.499 260.713C238.733 264.221 211.683 282.75 204.977 324.754Z" fill="url(#paint2_linear_2503_3571)"/>
    <path d="M254.664 294.179C254.407 294.179 254.15 294.06 253.996 293.854C249.788 288.362 247.426 282.288 247.341 282.049C247.17 281.604 247.392 281.125 247.837 280.954C248.282 280.783 248.761 281.005 248.932 281.45C248.949 281.518 251.293 287.541 255.365 292.845C255.656 293.221 255.588 293.752 255.211 294.043C255.04 294.111 254.852 294.179 254.664 294.179Z" fill="url(#paint3_linear_2503_3571)"/>
    <path d="M289.139 309.561L291.876 308.825L300.174 306.909C301.167 306.669 302.227 306.857 303.1 307.405L310.235 311.888L290.525 311.853L289.139 309.561Z" fill="#F09959"/>
    <path d="M262.55 234.296C262.55 234.296 267.648 242.783 268.538 247.471C269.428 252.159 270.848 255.101 265.51 256.761C260.171 258.438 255.21 256.316 252.096 251.936C252.096 251.936 247.237 245.195 247.716 242.115C248.195 239.036 262.55 234.296 262.55 234.296Z" fill="#F09959"/>
    <path d="M253.516 248.326L254.201 248.241C254.201 248.241 250.591 242.783 252.952 241.414C255.313 240.062 264.962 236.726 266.639 232.928C268.247 229.266 265.835 225.126 262.926 224.27C262.738 224.219 262.55 224.322 262.482 224.51L262.31 224.972C262.191 225.28 261.746 225.297 261.609 224.989C261.489 224.698 261.061 224.681 260.925 224.972C260.411 226.101 258.854 228.052 254.218 229.557C247.631 231.696 243.541 234.998 244.038 239.686C244.072 239.977 243.781 240.182 243.507 240.062C242.977 239.823 242.156 239.789 241.215 240.815C239.572 242.612 240.855 246.547 245.355 249.336C245.56 249.472 245.612 249.763 245.423 249.934C244.756 250.516 243.798 251.799 246.844 252.946C249.957 254.109 251.651 253.716 252.284 253.476C252.455 253.408 252.558 253.237 252.507 253.048L251.703 248.959C251.668 248.754 251.805 248.549 252.028 248.514L253.516 248.326Z" fill="#2F333A"/>
    <path d="M253.806 249.165C253.806 249.165 251.548 243.604 249.187 245.554C246.826 247.505 251.377 251.817 253.481 251.765L253.806 249.165Z" fill="#F09959"/>
    <path d="M281.525 315.754C281.559 315.754 281.593 315.754 281.627 315.754L323.734 315.72C324.777 315.72 325.616 314.882 325.616 313.838C325.616 312.794 324.76 311.939 323.734 311.956L281.627 311.99C280.584 311.99 279.745 312.829 279.745 313.872C279.728 314.899 280.515 315.72 281.525 315.754Z" fill="#303030"/>
    <path d="M340.04 274.521C340.023 274.555 340.006 274.572 339.988 274.606L322.28 312.811C321.835 313.752 322.246 314.882 323.187 315.309C324.128 315.754 325.274 315.344 325.685 314.386L343.41 276.18C343.855 275.239 343.445 274.11 342.504 273.682C341.58 273.272 340.502 273.631 340.04 274.521Z" fill="#4E4E4E"/>
    <path d="M450.311 354.148H445.862V402.208H450.311V354.148Z" fill="#252525"/>
    <path d="M467.557 403.149H428.633C428.633 401.558 429.933 400.258 431.524 400.258H464.665C466.256 400.258 467.557 401.558 467.557 403.149Z" fill="#252525"/>
    <path d="M473.323 352.488C473.323 355.123 471.167 357.262 468.549 357.262H429.163C426.528 357.262 424.39 355.106 424.39 352.488V348.159C424.39 345.525 426.545 343.386 429.163 343.386H468.549C471.184 343.386 473.323 345.542 473.323 348.159V352.488Z" fill="#252525"/>
    <path d="M415.268 322.102C415.268 322.102 408.664 323.128 401.239 328.09C400.075 328.877 399.425 330.229 399.613 331.632C400.503 338.681 404.164 361.471 416.209 383.73C416.842 384.91 417.031 386.279 416.74 387.579L414.652 397.332L410.769 400.976H420.778L427.433 382.943L424.593 382.036C422.386 381.335 420.863 379.299 420.829 376.989L420.487 357.655C420.778 349.032 415.2 343.095 415.2 343.095L431.18 342.325L415.268 322.102Z" fill="#E38540"/>
    <path d="M406.868 402.738C405.961 403.936 416.671 405.51 422.095 402.892C422.095 402.892 429.606 389.838 429.606 383.114C429.606 383.114 429.007 381.745 424.61 382.053C424.61 382.053 422.095 397.52 419.426 399.248C416.757 400.976 411.983 399.419 411.983 399.419C411.983 399.419 408.202 400.976 406.868 402.738Z" fill="#252525"/>
    <path d="M429.161 343.386C429.076 343.232 411.966 341.333 411.966 341.333C411.966 341.333 412.531 346.534 410.769 353.703C409.023 360.872 383.89 391.908 383.89 391.908L386.525 400.258C378.38 403.098 370.356 403.543 362.469 401.712L378.808 391.908C378.808 391.908 394.087 339.827 403.446 330.537L420.607 324.6L429.161 343.386Z" fill="#F09959"/>
    <path d="M467.555 313.085C467.555 313.085 477.41 327.748 478.232 334.438C479.036 341.127 475.528 343.848 465.177 344.293C454.826 344.738 427.212 344.738 427.212 344.738L403.635 324.583C403.635 324.583 420.813 318.458 425.278 316.712C429.744 314.984 467.555 313.085 467.555 313.085Z" fill="#2F333A"/>
    <path d="M385.533 397.435C385.533 397.435 388.373 400.189 386.456 403.235C386.456 403.235 363.975 407.221 357.884 405.408C357.884 405.408 359.15 402.516 366.028 399.231L365.515 399.625C364.882 400.121 365.241 401.147 366.062 401.096C370.562 400.839 379.938 400.018 385.533 397.435Z" fill="#252525"/>
    <path d="M424.834 220.044C444.988 216.622 454.484 233.065 453.783 236.521C453.697 236.983 454.125 237.359 454.57 237.239C456.879 236.623 461.995 235.836 465.16 239.806C467.966 243.313 465.862 246.615 464.168 248.429C463.757 248.874 464.1 249.575 464.698 249.507C468.959 248.976 478.198 248.839 479.721 257.497C481.123 265.572 475.512 267.848 472.175 268.498C471.611 268.601 471.474 269.354 471.97 269.662C473.63 270.722 475.563 272.895 474.776 277.207C473.561 283.948 460.336 283.4 458.779 283.315C458.676 283.315 458.59 283.281 458.505 283.229L437.323 271.15C437.152 271.047 437.05 270.893 437.015 270.705L432.738 246.016C432.704 245.811 432.772 245.606 432.909 245.469L419.102 225.981C414.089 225.228 424.594 220.096 424.834 220.044Z" fill="#2F333A"/>
    <path d="M440.881 311.135C440.881 311.135 429.4 300.202 423.737 292.964C420.675 289.046 419.717 283.896 421.137 279.14C423.72 270.448 428.305 261.432 428.716 260.029C429.349 257.873 442.233 257.976 442.233 257.976C442.233 257.976 467.572 274.418 477.529 302.272L466.34 305.745C466.34 305.745 459.718 294.641 453.183 287.592C453.183 287.592 464.492 302.529 464.885 308.654L440.881 311.135Z" fill="url(#paint4_linear_2503_3571)"/>
    <path d="M427.159 248.018C427.296 248.463 430.649 259.601 430.923 259.841C431.18 260.08 438.297 260.457 441.634 258.164L433.336 241.927L427.159 248.018Z" fill="#F09959"/>
    <path d="M427.902 253.766C426.914 249.63 431.074 243.908 434.001 243L437 249C435.238 251.275 430.92 254.902 427.902 253.766Z" fill="#E38540"/>
    <path d="M413.695 233.698C413.695 233.698 412.07 240.079 416.57 248.668C421.069 257.257 426.151 257.24 428.94 254.503C431.728 251.748 435.15 247.094 434.329 238.796C433.508 230.481 416.039 225.588 413.695 233.698Z" fill="#F09959"/>
    <path d="M428.101 239.241C428.101 239.241 420.641 227.846 413.66 236.811L413.541 240.079C413.541 240.079 405.345 239.104 406.782 231.593C408.22 224.082 415.286 219.394 424.405 222.645C433.524 225.896 438.743 229.232 439.324 235.768C439.906 242.304 434.722 240.866 434.722 240.866C434.722 240.866 433.028 236.264 430.616 235.785C428.203 235.306 428.836 238.899 428.836 238.899L428.101 239.241Z" fill="#2F333A"/>
    <path d="M417.476 311.956L425.911 303.829L437.579 308.756C437.579 308.756 449.196 310.553 455.852 308.756C462.508 306.96 462.508 306.96 462.508 306.96L477.53 302.289L479.891 308.962C480.49 310.656 479.891 312.538 478.419 313.581C477.119 314.505 475.596 315.515 474.621 315.942C472.636 316.815 425.842 315.344 425.842 315.344L417.476 311.956Z" fill="#F09959"/>
    <path d="M449.419 315.788C449.385 315.788 449.351 315.788 449.299 315.788L400.349 315.737C399.134 315.737 398.159 314.762 398.159 313.547C398.159 312.332 399.152 311.34 400.349 311.357L449.299 311.408C450.514 311.408 451.489 312.384 451.489 313.599C451.489 314.762 450.565 315.72 449.419 315.788Z" fill="#303030"/>
    <path d="M356.362 271.338H397.116C400.127 271.338 402.865 273.066 404.148 275.787L422.986 315.737H372.325C370.391 315.737 368.646 314.557 367.928 312.743L353.316 275.77C352.478 273.665 354.052 271.338 356.362 271.338Z" fill="#4E4E4E"/>
    <path d="M385.072 291.835C385.961 294.573 385.294 297.242 383.617 297.789C381.923 298.337 379.836 296.54 378.963 293.803C378.074 291.065 378.741 288.396 380.418 287.849C382.112 287.301 384.182 289.081 385.072 291.835Z" fill="#969696"/>
    <path d="M505.214 397.092C505.214 397.092 505.727 399.95 505.933 403.337C506.018 404.774 504.957 406.041 503.503 406.177C498.49 406.656 487.095 407.563 479.807 406.503C478.78 406.349 478.387 405.1 479.139 404.398C482.134 401.609 489.388 396.151 501.33 394.971L505.214 397.092Z" fill="#252525"/>
    <path d="M507.712 390.659L505.18 396.87C504.837 397.725 503.965 398.256 503.058 398.153C502.442 398.085 501.706 397.965 500.988 397.76C499.551 397.332 498.747 395.809 499.174 394.372L501.091 387.973L507.712 390.659Z" fill="#F09959"/>
    <path d="M551.016 391.496C551.016 391.496 545.951 395.739 543.967 401.18C543.419 402.685 544.565 404.26 546.157 404.26H556.593C558.116 404.26 559.297 402.891 559.023 401.385C558.373 397.621 556.457 391.513 551.016 391.496Z" fill="url(#paint5_linear_2503_3571)"/>
    <path d="M557.295 396.511C557.295 396.511 556.268 401.045 555.481 404.039C555.344 404.586 554.762 404.877 554.232 404.689C552.658 404.124 551.375 403.868 550.434 404.005C550.006 404.056 549.63 403.697 549.612 403.269L549.51 395.741L557.295 396.511Z" fill="url(#paint6_linear_2503_3571)"/>
    <path d="M530.314 294.47L499.466 388.589C499.466 388.589 505.386 392.473 508.209 392.302L544.857 316.661C544.857 316.661 551.273 363.267 548.159 396.733L558.647 397.537C558.647 397.537 575.722 312.024 562.788 282.733L530.314 294.47Z" fill="#2F333A"/>
    <path d="M524.53 211.643C524.53 211.643 549.527 213.868 545.986 231.679C545.986 231.679 559.81 257.685 566.26 288.311C566.466 289.303 565.798 290.278 564.806 290.449L523.179 297.584C522.033 297.772 520.92 297.071 520.63 295.942L510.689 257.497L506.805 275.376L494.486 272.159L504.855 219.651C504.872 219.634 506.309 211.969 524.53 211.643Z" fill="url(#paint7_linear_2503_3571)"/>
    <path d="M510.483 255.769C510.5 255.769 510.534 255.769 510.551 255.769C510.723 255.735 510.825 255.563 510.791 255.392L507.318 239.463C507.284 239.292 507.112 239.19 506.941 239.224C506.77 239.258 506.668 239.429 506.702 239.6L510.175 255.529C510.209 255.666 510.329 255.769 510.483 255.769Z" fill="url(#paint8_linear_2503_3571)"/>
    <path d="M512.997 303.179C514.315 302.46 515.837 302.255 517.292 302.614L520.183 303.333C520.799 303.487 521.415 303.059 521.483 302.426L524.478 275.752C528.225 277.532 533.631 277.327 535.411 277.19L528.515 308.637H504.374L512.997 303.179Z" fill="#F09959"/>
    <path d="M448.854 245.315L449.59 242.885C450.018 241.482 451.044 240.353 452.396 239.823L465.587 234.519C465.587 234.519 465.793 232.825 462.799 231.679C459.805 230.532 460.506 227.179 460.506 227.179C460.506 227.179 464.595 229.044 470.566 231.987C473.988 233.68 475.904 236.657 476.914 238.899L506.821 275.359L503.314 277.771C498.694 280.937 492.347 279.38 489.729 274.435L473.526 243.364C465.382 245.828 457.153 246.29 448.854 245.315Z" fill="#F09959"/>
    <path d="M516.436 194.637L524.118 216.161C524.118 216.161 517.309 221.482 512.347 219.685L508.48 207.349C508.48 207.349 511.44 192.276 516.436 194.637Z" fill="#F09959"/>
    <path d="M493.493 186.92C493.493 187.246 500.902 207.879 500.902 207.879L512.587 203.397L508.481 182.797C508.481 182.797 493.493 181.36 493.493 186.92Z" fill="#F09959"/>
    <path d="M506.427 187.827L509.438 198.504C509.473 198.64 509.49 198.777 509.49 198.914C509.49 199.787 509.267 202.781 506.222 202.37C503.45 201.994 500.918 201.703 499.31 202.456C498.591 202.798 498.249 203.636 498.505 204.372C499.173 206.254 500.781 210.446 502.714 213.885C503.108 214.586 503.981 214.86 504.699 214.518C506.889 213.526 511.474 211.284 514.725 208.615C515.17 208.256 515.375 207.691 515.273 207.127C514.759 204.389 513.237 196.091 513.168 193.713C513.1 191.472 515.615 189.778 516.71 189.128C517.069 188.922 517.326 188.563 517.428 188.169C517.771 186.732 518.062 183.481 513.921 182.763C513.048 182.609 512.484 181.788 512.655 180.915C513.014 179.187 512.894 176.672 509.627 175.731C506.307 174.79 504.22 176.775 503.159 178.314C502.732 178.93 501.927 179.136 501.243 178.828C500.849 178.657 500.37 178.64 499.874 179.067C499.19 179.649 498.146 179.461 497.65 178.725C496.675 177.305 494.93 175.885 491.953 176.843C486.666 178.554 486.922 184.645 488.856 187.947C490.789 191.249 496.418 189.076 499.07 186.886C501.089 185.227 504.169 186.219 505.537 186.784C505.982 187.006 506.29 187.365 506.427 187.827Z" fill="#2F333A"/>
    <path d="M514.247 197.631C514.247 197.631 511.116 191.711 513.186 189.863C515.256 187.998 518.764 188.306 518.661 192.943C518.541 198.675 514.247 197.631 514.247 197.631Z" fill="#F09959"/>
    <path d="M260.121 406.982C259.916 406.982 259.694 406.93 259.488 406.845C258.684 406.468 258.308 405.442 258.65 404.569L291.911 320.186C292.253 319.313 293.194 318.903 293.998 319.279C294.802 319.655 295.178 320.682 294.836 321.554L261.576 405.938C261.336 406.588 260.737 406.982 260.121 406.982Z" fill="#252525"/>
    <path d="M297.59 406.982C296.974 406.982 296.392 406.588 296.136 405.938L262.875 321.554C262.533 320.682 262.892 319.655 263.713 319.279C264.518 318.902 265.459 319.313 265.801 320.186L299.061 404.569C299.404 405.442 299.044 406.468 298.223 406.845C298.018 406.947 297.812 406.982 297.59 406.982Z" fill="#252525"/>
    <path d="M485.845 406.982C485.64 406.982 485.417 406.93 485.212 406.845C484.408 406.468 484.031 405.442 484.374 404.569L517.634 320.186C517.976 319.313 518.917 318.902 519.722 319.279C520.526 319.655 520.902 320.682 520.56 321.554L487.316 405.938C487.043 406.588 486.461 406.982 485.845 406.982Z" fill="#252525"/>
    <path d="M523.315 406.982C522.699 406.982 522.117 406.588 521.86 405.938L488.6 321.554C488.257 320.682 488.617 319.655 489.438 319.279C490.242 318.902 491.183 319.313 491.525 320.186L524.786 404.569C525.128 405.442 524.769 406.468 523.948 406.845C523.742 406.947 523.52 406.982 523.315 406.982Z" fill="#252525"/>
    <path d="M481.021 314.214H529.183V309.236H481.021C482.064 309.253 482.064 314.214 481.021 314.214Z" fill="white"/>
    <path d="M528.619 314.214C528.927 314.214 529.184 313.958 529.184 313.65V309.817C529.184 309.509 528.927 309.253 528.619 309.253H480.131C479.823 309.253 479.566 308.996 479.566 308.688C479.566 308.38 479.823 308.124 480.131 308.124H531.955C533.102 308.124 534.043 309.047 534.043 310.211V313.393C534.043 314.471 533.17 315.361 532.075 315.361H480.131C479.823 315.361 479.566 315.104 479.566 314.796C479.566 314.488 479.823 314.232 480.131 314.232H528.619V314.214Z" fill="black"/>
    <path d="M536.182 317.568C536.336 317.02 536.131 316.439 535.583 316.011C535.036 315.583 534.231 315.327 533.376 315.327H244.74C243.628 315.327 242.584 315.703 241.969 316.336C241.37 316.969 241.284 317.756 241.746 318.423L244.877 322.906C245.596 323.933 247.153 324.6 248.847 324.6H531.391C532.982 324.6 534.351 323.847 534.642 322.82L536.182 317.568Z" fill="#252525"/>
    <g opacity="0.3">
        <path opacity="0.3" d="M338.608 82.6215C337.701 82.4333 337.102 81.5436 337.29 80.6197C337.667 78.8403 337.958 77.0267 338.18 75.2131C338.283 74.2892 339.121 73.6391 340.028 73.7417C340.045 73.7417 340.045 73.7417 340.062 73.7417C340.986 73.8615 341.653 74.6999 341.534 75.6238C341.311 77.5229 340.986 79.4392 340.61 81.3041C340.439 82.1596 339.634 82.7242 338.779 82.6386C338.728 82.6386 338.659 82.6386 338.608 82.6215ZM338.642 66.3334C338.608 64.5198 338.505 62.6719 338.317 60.8755C338.214 59.9515 338.899 59.1132 339.823 59.0276C340.746 58.9421 341.585 59.6094 341.67 60.5333C341.859 62.4324 341.978 64.3658 342.013 66.282C342.03 67.223 341.277 67.9759 340.353 67.993C340.285 67.993 340.216 67.993 340.148 67.993C339.309 67.9074 338.642 67.2059 338.642 66.3334ZM336.794 52.1154C336.366 50.3532 335.836 48.5909 335.254 46.8629C334.946 45.9732 335.425 45.015 336.315 44.7242C337.205 44.4333 338.163 44.8953 338.454 45.785C339.07 47.5986 339.617 49.4635 340.062 51.3113C340.285 52.2181 339.737 53.1249 338.83 53.3644C338.642 53.4157 338.437 53.4158 338.249 53.3986C337.581 53.3302 336.965 52.834 336.794 52.1154ZM331.815 38.6674C330.994 37.0421 330.104 35.4338 329.146 33.8939C328.65 33.1069 328.907 32.0632 329.694 31.567C330.481 31.0709 331.525 31.3275 332.021 32.1146C333.03 33.7399 333.971 35.4338 334.827 37.1447C335.254 37.9831 334.912 38.9925 334.074 39.4203C333.783 39.5742 333.458 39.6256 333.15 39.5914C332.602 39.54 332.089 39.1978 331.815 38.6674ZM323.979 26.6566C322.816 25.2537 321.584 23.8849 320.318 22.5846C319.668 21.9173 319.668 20.8394 320.335 20.1893C321.002 19.5391 322.08 19.5391 322.73 20.2064C324.065 21.5751 325.365 23.0123 326.58 24.4837C327.179 25.2023 327.076 26.2631 326.357 26.862C325.998 27.1699 325.553 27.2897 325.108 27.2384C324.681 27.2213 324.27 27.0159 323.979 26.6566ZM313.662 16.6819C312.225 15.5698 310.719 14.509 309.197 13.5337C308.41 13.0204 308.187 11.9768 308.683 11.2069C309.197 10.4198 310.24 10.1974 311.027 10.6936C312.636 11.7372 314.227 12.8494 315.733 14.0128C316.468 14.5774 316.605 15.6382 316.04 16.391C315.664 16.8701 315.099 17.0925 314.535 17.0412C314.227 17.0069 313.919 16.8872 313.662 16.6819ZM251.897 5.6463C251.606 4.75661 252.068 3.79848 252.958 3.50762C254.772 2.89168 256.637 2.36129 258.502 1.89933C259.408 1.67691 260.315 2.24153 260.538 3.14832C260.76 4.05512 260.195 4.96192 259.289 5.18434C257.526 5.61208 255.747 6.12536 254.036 6.70708C253.796 6.79262 253.557 6.80973 253.335 6.79262C252.684 6.72419 252.12 6.29646 251.897 5.6463ZM301.412 9.25638C299.769 8.48645 298.059 7.80208 296.348 7.16903C295.475 6.84396 295.013 5.88583 295.338 5.01325C295.663 4.14067 296.621 3.67872 297.494 4.00379C299.29 4.65395 301.087 5.38965 302.815 6.1938C303.67 6.58731 304.03 7.59677 303.636 8.43513C303.328 9.1024 302.627 9.4788 301.925 9.41037C301.771 9.39326 301.583 9.34192 301.412 9.25638ZM266.201 2.17309C266.115 1.24918 266.783 0.410819 267.706 0.325272C269.606 0.137069 271.539 0.0173038 273.455 0.000194432C274.396 -0.016915 275.149 0.735896 275.166 1.6598C275.183 2.60082 274.43 3.35363 273.507 3.37074C271.693 3.40496 269.845 3.50762 268.049 3.67872C267.929 3.69583 267.826 3.69583 267.706 3.67872C266.937 3.61028 266.286 2.99434 266.201 2.17309ZM287.81 4.7395C286.031 4.36309 284.217 4.07223 282.403 3.84981C281.479 3.73004 280.812 2.89168 280.932 1.96778C281.052 1.06098 281.873 0.39371 282.78 0.496366C282.797 0.496366 282.797 0.496366 282.814 0.496366C284.713 0.735898 286.629 1.04387 288.494 1.43738C289.401 1.62559 290 2.53238 289.795 3.43918C289.624 4.29465 288.819 4.85926 287.981 4.77372C287.93 4.77372 287.861 4.75661 287.81 4.7395Z" fill="white"/>
        <path opacity="0.3" d="M242.487 11.6004C242.812 11.6346 243.154 11.5662 243.479 11.3951C244.249 10.9673 245.019 10.5567 245.806 10.1632C246.644 9.75256 246.969 8.726 246.559 7.88764C246.148 7.04927 245.121 6.7242 244.283 7.13482C243.462 7.54545 242.641 7.99029 241.836 8.43514C241.015 8.87998 240.724 9.92366 241.186 10.7278C241.443 11.2411 241.939 11.5319 242.487 11.6004Z" fill="white"/>
        <path opacity="0.3" d="M210.783 52.2011C211.587 52.2866 212.374 51.7733 212.579 50.9521C212.802 50.1137 213.041 49.2583 213.315 48.4199C213.589 47.5302 213.093 46.5892 212.203 46.2983C211.313 46.0246 210.372 46.5207 210.081 47.4104C209.808 48.283 209.551 49.1898 209.311 50.0795C209.072 50.9863 209.602 51.9102 210.509 52.1497C210.595 52.1668 210.697 52.184 210.783 52.2011Z" fill="white"/>
        <path opacity="0.3" d="M306.561 126.542C306.903 126.576 307.245 126.507 307.553 126.336C308.357 125.891 309.161 125.412 309.948 124.933C310.735 124.437 310.992 123.411 310.496 122.606C310 121.819 308.973 121.563 308.169 122.059C307.416 122.521 306.663 122.966 305.893 123.393C305.072 123.855 304.798 124.882 305.243 125.686C305.534 126.199 306.03 126.49 306.561 126.542Z" fill="white"/>
    </g>
    <path d="M314.411 98.6702C314.651 98.4307 314.702 98.0714 314.565 97.7634L310.356 89.1232C312.717 85.3078 314.497 81.0818 315.557 76.5991L324.643 73.4681C324.968 73.3654 325.173 73.0575 325.173 72.7153V61.1835C325.173 60.8414 324.968 60.5505 324.643 60.4307L315.557 57.2997C314.497 52.7999 312.734 48.591 310.356 44.7756L314.565 36.1354C314.719 35.8274 314.651 35.4681 314.411 35.2286L306.25 27.0845C306.01 26.845 305.651 26.7936 305.343 26.9305L296.703 31.1394C292.887 28.7783 288.661 26.9989 284.179 25.9382L281.048 16.8531C280.945 16.528 280.637 16.3227 280.295 16.3227H268.763C268.421 16.3227 268.13 16.5451 268.01 16.8531L264.879 25.9382C260.38 26.9989 256.171 28.7612 252.355 31.1394L243.715 26.9305C243.407 26.7765 243.048 26.845 242.808 27.0845L234.664 35.2457C234.425 35.4852 234.373 35.8445 234.51 36.1525L238.719 44.7927C236.358 48.6081 234.579 52.8342 233.518 57.3168L224.433 60.4478C224.108 60.5505 223.902 60.8585 223.902 61.2007V72.7324C223.902 73.0746 224.108 73.3654 224.433 73.4852L233.518 76.6162C234.579 81.116 236.341 85.3249 238.719 89.1403L234.51 97.7805C234.356 98.0885 234.425 98.4478 234.664 98.6874L242.825 106.831C243.065 107.071 243.424 107.122 243.732 106.985L252.372 102.777C256.188 105.138 260.414 106.917 264.896 107.978L268.028 117.063C268.13 117.388 268.438 117.593 268.78 117.593H280.312C280.654 117.593 280.945 117.388 281.065 117.063L284.196 107.978C288.696 106.917 292.905 105.155 296.72 102.777L305.36 106.985C305.668 107.139 306.027 107.071 306.267 106.831L314.411 98.6702Z" fill="#9EC8FF"/>
    <path d="M271.708 78.1903C265.514 76.6334 261.75 70.32 263.307 64.1264C264.06 61.1322 265.942 58.6001 268.611 57.0089C271.263 55.4177 274.377 54.9729 277.388 55.7257C283.582 57.2826 287.346 63.596 285.789 69.7896C284.369 75.4186 279.014 79.0458 273.402 78.4812C272.82 78.4299 272.273 78.3272 271.708 78.1903ZM269.98 59.3187C267.944 60.5334 266.507 62.4668 265.925 64.7765C264.727 69.533 267.619 74.3749 272.358 75.5726C277.115 76.7702 281.957 73.8787 283.154 69.1394C284.352 64.383 281.46 59.5411 276.721 58.3434C276.293 58.2408 275.866 58.1552 275.421 58.121C273.539 57.9157 271.64 58.3434 269.98 59.3187Z" fill="url(#paint9_linear_2503_3571)"/>
    <path d="M271.467 95.1115C272.425 95.2142 273.4 95.2655 274.392 95.2655C274.7 95.2655 275.008 95.2655 275.316 95.2484C276.839 95.1971 278.362 95.026 279.85 94.7351C279.867 94.7351 279.885 94.7351 279.919 94.718C279.97 94.7009 280.039 94.7009 280.09 94.6838C280.21 94.6667 280.312 94.6325 280.432 94.6153C280.723 94.5469 280.928 94.3074 280.962 94.0165C280.962 93.9481 280.962 93.8796 280.945 93.8112C280.86 93.4519 280.501 93.2124 280.141 93.2979C278.259 93.7085 276.326 93.9139 274.392 93.9139C264.777 93.9139 256.308 88.8837 251.483 81.3213C248.797 77.1124 247.24 72.1165 247.24 66.7783C247.24 65.8373 247.291 64.9134 247.377 63.9895C248.01 57.7959 250.713 52.0471 255.179 47.5816C260.311 42.4488 267.121 39.6257 274.375 39.6257C289.346 39.6257 301.528 51.8076 301.528 66.7612C301.528 67.6851 301.477 68.609 301.391 69.5158C300.998 73.4681 299.731 77.2835 297.678 80.7054C297.627 80.7909 297.593 80.8936 297.593 80.9791C297.576 81.2358 297.678 81.4924 297.918 81.6293C298.243 81.8175 298.654 81.7149 298.842 81.3898C300.98 77.8139 302.315 73.7932 302.726 69.6527C302.828 68.6946 302.88 67.7365 302.88 66.7612C302.88 51.0548 290.082 38.2741 274.375 38.2741C266.762 38.2741 259.61 41.234 254.22 46.6235C249.532 51.3114 246.675 57.3339 246.025 63.8355C245.922 64.7936 245.871 65.786 245.871 66.7612C245.871 74.3749 248.831 81.5266 254.22 86.9161C258.926 91.6041 264.948 94.4614 271.467 95.1115Z" fill="url(#paint10_linear_2503_3571)"/>
    <g opacity="0.3">
        <path opacity="0.3" d="M431.66 72.7521C432.105 72.8035 432.55 72.5468 432.738 72.102C433.08 71.2807 433.388 70.4424 433.662 69.604C433.85 69.0565 433.559 68.4748 433.012 68.2866C432.464 68.0984 431.865 68.3893 431.694 68.9368C431.421 69.7409 431.13 70.545 430.805 71.3149C430.582 71.8453 430.839 72.4613 431.386 72.6666C431.455 72.7179 431.557 72.7521 431.66 72.7521Z" fill="#BDD0FB"/>
        <path opacity="0.3" d="M433.885 65.0529C433.32 64.9332 432.961 64.3857 433.081 63.821C433.371 62.401 433.594 60.9467 433.748 59.4924C433.782 59.1844 433.799 58.8764 433.833 58.5684C433.885 57.9867 434.381 57.559 434.963 57.6103C435.51 57.6788 435.972 58.1578 435.921 58.7395C435.887 59.0646 435.869 59.3897 435.835 59.6977C435.681 61.2204 435.442 62.7432 435.134 64.2317C435.031 64.7621 434.535 65.1214 434.005 65.0529C433.953 65.07 433.919 65.07 433.885 65.0529ZM433.919 53.2817C433.851 51.5194 433.662 49.74 433.371 48.012C433.269 47.4473 433.662 46.8998 434.227 46.8143C434.792 46.7288 435.339 47.1052 435.425 47.6698C435.733 49.4834 435.921 51.3483 436.006 53.1961C436.023 53.7778 435.579 54.2569 435.014 54.2911C434.963 54.2911 434.911 54.2911 434.86 54.2911C434.347 54.2227 433.936 53.7949 433.919 53.2817ZM432.174 42.8449C431.678 41.1511 431.062 39.4915 430.343 37.8661C430.104 37.3357 430.36 36.7197 430.873 36.4973C431.404 36.2578 432.02 36.4973 432.242 37.0277C432.978 38.7216 433.628 40.4838 434.159 42.2461C434.33 42.7936 434.005 43.3753 433.457 43.5464C433.32 43.5806 433.183 43.5977 433.046 43.5806C432.653 43.5464 432.294 43.2556 432.174 42.8449ZM427.914 33.161C427.007 31.6383 425.997 30.1668 424.919 28.781C424.56 28.319 424.646 27.6689 425.108 27.3096C425.57 26.9503 426.22 27.0358 426.579 27.4978C427.708 28.9521 428.769 30.4919 429.71 32.0831C430.001 32.5793 429.847 33.2123 429.351 33.5203C429.145 33.6401 428.923 33.6914 428.718 33.6572C428.393 33.6229 428.102 33.4519 427.914 33.161ZM421.429 24.7945C420.18 23.5455 418.846 22.365 417.477 21.27C417.032 20.9107 416.946 20.2605 417.306 19.7985C417.665 19.3366 418.315 19.2682 418.777 19.6275C420.231 20.7738 421.617 22.0057 422.935 23.3231C423.345 23.7337 423.345 24.401 422.935 24.7945C422.712 25.0169 422.387 25.1196 422.096 25.0854C421.84 25.0854 421.6 24.9827 421.429 24.7945ZM413.114 18.2758C411.608 17.369 410.034 16.5478 408.426 15.8292C407.896 15.5896 407.656 14.9737 407.896 14.4604C408.135 13.93 408.751 13.6905 409.281 13.93C410.958 14.6828 412.618 15.5383 414.209 16.4964C414.705 16.7873 414.859 17.4375 414.568 17.9336C414.346 18.2929 413.952 18.4811 413.576 18.4298C413.388 18.3956 413.251 18.3614 413.114 18.2758ZM403.447 13.9814C401.77 13.4681 400.025 13.0574 398.297 12.7666C397.733 12.6639 397.356 12.1335 397.442 11.5689C397.544 11.0043 398.075 10.6279 398.639 10.7135C400.47 11.0214 402.284 11.4663 404.046 11.9967C404.593 12.1678 404.901 12.7495 404.747 13.297C404.593 13.776 404.132 14.084 403.652 14.0327C403.584 14.0156 403.516 13.9985 403.447 13.9814ZM386.611 11.2952C386.56 10.7135 387.005 10.2173 387.57 10.1831C389.161 10.0633 390.786 10.0291 392.394 10.0804C392.634 10.0804 392.891 10.0975 393.13 10.1146C393.712 10.1317 394.157 10.6279 394.122 11.2096C394.088 11.7914 393.609 12.2362 393.027 12.202C392.805 12.1849 392.566 12.1849 392.343 12.1678C390.803 12.1164 389.246 12.1506 387.741 12.2704C387.672 12.2704 387.621 12.2704 387.552 12.2704C387.056 12.202 386.646 11.8085 386.611 11.2952Z" fill="#BDD0FB"/>
    </g>
    <g opacity="0.3">
        <path opacity="0.3" d="M385.808 99.9048C383.995 99.6995 382.198 99.3744 380.436 98.9638C379.871 98.8269 379.529 98.2623 379.666 97.6977C379.803 97.1331 380.368 96.7909 380.932 96.9278C382.609 97.3384 384.337 97.6292 386.065 97.8345C386.63 97.903 387.04 98.4163 386.989 98.998C386.903 99.5455 386.39 99.9561 385.808 99.9048ZM390.205 99.152C390.205 98.5703 390.667 98.1083 391.249 98.1083C392.977 98.0912 394.739 97.9885 396.45 97.7661C397.015 97.6977 397.545 98.0912 397.614 98.6729C397.682 99.2375 397.289 99.7679 396.707 99.8363C394.911 100.059 393.063 100.179 391.249 100.196C391.215 100.196 391.181 100.196 391.129 100.196C390.633 100.127 390.223 99.6995 390.205 99.152ZM375.201 97.3555C373.49 96.7224 371.813 95.9696 370.205 95.1313C369.691 94.8575 369.486 94.2416 369.76 93.7283C370.034 93.215 370.649 93.0268 371.163 93.2834C372.703 94.0876 374.294 94.7891 375.919 95.405C376.467 95.6103 376.74 96.2092 376.535 96.7396C376.364 97.2015 375.919 97.4581 375.457 97.4068C375.372 97.4068 375.286 97.3897 375.201 97.3555ZM400.813 98.057C400.676 97.4924 401.002 96.9277 401.566 96.7909C403.243 96.3631 404.92 95.8328 406.528 95.1997C407.058 94.9944 407.674 95.251 407.88 95.7985C408.085 96.3289 407.828 96.9448 407.281 97.1502C405.587 97.8174 403.842 98.3649 402.079 98.8098C401.96 98.844 401.84 98.844 401.72 98.844C401.31 98.7927 400.933 98.5018 400.813 98.057ZM365.517 92.3253C364.011 91.2988 362.574 90.1695 361.205 88.9719C360.777 88.5955 360.726 87.9282 361.12 87.5005C361.496 87.0727 362.163 87.0214 362.591 87.4149C363.891 88.5613 365.277 89.6391 366.697 90.6144C367.176 90.9395 367.296 91.5896 366.971 92.0687C366.749 92.3938 366.372 92.5477 365.996 92.5135C365.842 92.4964 365.671 92.428 365.517 92.3253ZM357.321 85.1223C356.106 83.7706 354.977 82.3163 353.934 80.8278C353.608 80.3487 353.728 79.6986 354.19 79.3735C354.669 79.0484 355.319 79.1682 355.644 79.6301C356.637 81.0502 357.715 82.419 358.878 83.7193C359.255 84.147 359.22 84.8143 358.793 85.1907C358.57 85.396 358.279 85.4816 357.988 85.4473C357.749 85.4473 357.509 85.3276 357.321 85.1223ZM351.093 76.1569C350.238 74.5486 349.485 72.8719 348.835 71.1781C348.63 70.6306 348.903 70.0318 349.434 69.8265C349.964 69.6211 350.58 69.8949 350.785 70.4253C351.401 72.0336 352.12 73.6418 352.941 75.1646C353.215 75.6779 353.01 76.3109 352.513 76.5676C352.325 76.6702 352.12 76.7044 351.915 76.6873C351.59 76.6873 351.264 76.482 351.093 76.1569Z" fill="#BDD0FB"/>
        <path opacity="0.3" d="M411.712 94.9602C411.918 94.9773 412.123 94.943 412.311 94.8404C413.098 94.4127 413.868 93.9678 414.621 93.5059C415.117 93.1979 415.271 92.5648 414.963 92.0687C414.655 91.5725 414.022 91.4185 413.526 91.7265C412.807 92.1713 412.072 92.5991 411.319 92.9926C410.806 93.2663 410.617 93.8994 410.891 94.4127C411.062 94.7206 411.37 94.9259 411.712 94.9602Z" fill="#BDD0FB"/>
    </g>
    <path d="M417.649 76.0029C417.803 75.8489 417.854 75.5923 417.751 75.4041L414.928 69.6211C416.52 67.0718 417.7 64.2488 418.402 61.2375L424.475 59.1502C424.681 59.0817 424.835 58.8764 424.835 58.654V50.9377C424.835 50.7152 424.698 50.5099 424.475 50.4415L418.402 48.3541C417.7 45.3429 416.502 42.5198 414.928 39.9705L417.751 34.1876C417.854 33.9822 417.803 33.7427 417.649 33.5887L412.191 28.1308C412.037 27.9768 411.78 27.9255 411.592 28.0282L405.809 30.8512C403.26 29.26 400.437 28.0795 397.425 27.378L395.338 21.3042C395.27 21.0989 395.064 20.9449 394.842 20.9449H387.126C386.903 20.9449 386.698 21.0818 386.629 21.3042L384.542 27.378C381.531 28.0795 378.708 29.2772 376.158 30.8512L370.375 28.0282C370.17 27.9255 369.931 27.9768 369.777 28.1308L364.319 33.5887C364.165 33.7427 364.113 33.9993 364.216 34.1876L367.039 39.9705C365.448 42.5198 364.267 45.3429 363.566 48.3541L357.492 50.4415C357.287 50.5099 357.133 50.7152 357.133 50.9377V58.654C357.133 58.8764 357.27 59.0817 357.492 59.1502L363.566 61.2375C364.267 64.2488 365.465 67.0718 367.039 69.6211L364.216 75.4041C364.113 75.6094 364.165 75.8489 364.319 76.0029L369.777 81.4608C369.931 81.6148 370.187 81.6661 370.375 81.5635L376.158 78.7404C378.708 80.3316 381.531 81.5122 384.542 82.2136L386.629 88.2875C386.698 88.4928 386.903 88.6468 387.126 88.6468H394.842C395.064 88.6468 395.27 88.5099 395.338 88.2875L397.425 82.2136C400.437 81.5122 403.26 80.3145 405.809 78.7404L411.592 81.5635C411.797 81.6661 412.037 81.6148 412.191 81.4608L417.649 76.0029Z" fill="#9EC8FF"/>
    <path d="M389.042 62.4352C386.989 61.9219 385.278 60.6387 384.2 58.8251C383.122 57.0115 382.814 54.89 383.327 52.8539C384.388 48.6279 388.682 46.0786 392.908 47.1394C397.134 48.2002 399.701 52.5117 398.623 56.7207C398.11 58.7567 396.826 60.4847 395.013 61.5626C393.541 62.4352 391.865 62.8116 390.188 62.6405C389.812 62.5892 389.418 62.5208 389.042 62.4352ZM385.346 53.3501C384.97 54.8557 385.192 56.4127 385.996 57.7472C386.783 59.0818 388.049 60.0228 389.555 60.3992C391.061 60.7756 392.618 60.5532 393.952 59.749C395.287 58.962 396.228 57.6959 396.604 56.1903C397.391 53.0935 395.492 49.9282 392.395 49.1412C392.121 49.0727 391.831 49.0214 391.557 48.9872C388.734 48.7134 386.048 50.527 385.346 53.3501Z" fill="url(#paint11_linear_2503_3571)"/>
    <path d="M388.87 74.2065C389.52 74.2749 390.188 74.3091 390.872 74.3091C392.207 74.3091 393.558 74.1723 394.859 73.8985C394.91 73.8814 394.978 73.8814 395.03 73.8643C395.492 73.7616 395.8 73.3852 395.851 72.9575C395.868 72.8548 395.851 72.7351 395.834 72.6324C395.714 72.0678 395.149 71.7085 394.602 71.8283C393.387 72.0849 392.138 72.2218 390.889 72.2218C390.821 72.2218 390.752 72.2218 390.684 72.2218C387.724 72.1876 384.884 71.4347 382.369 70.0318C381 69.279 379.734 68.3208 378.588 67.1916C378.57 67.1745 378.57 67.1745 378.553 67.1574C378.519 67.1232 378.502 67.1061 378.468 67.0719C375.149 63.7526 373.318 59.3384 373.318 54.6504C373.318 54.0345 373.352 53.4356 373.403 52.8368C373.814 48.8332 375.576 45.1034 378.451 42.2119C381.77 38.8927 386.184 37.062 390.872 37.062C395.56 37.062 399.974 38.8927 403.294 42.2119C406.613 45.5311 408.443 49.9453 408.443 54.6333C408.443 55.2321 408.409 55.831 408.358 56.4127C408.101 58.9791 407.28 61.4429 405.963 63.65C405.877 63.7869 405.826 63.9408 405.826 64.0777C405.791 64.4712 405.963 64.8647 406.322 65.07C406.818 65.3609 407.451 65.2069 407.759 64.7108C409.248 62.247 410.154 59.4753 410.445 56.618C410.514 55.9507 410.548 55.2835 410.548 54.6162C410.548 49.3636 408.495 44.4361 404.782 40.7234C401.069 37.0106 396.142 34.9575 390.889 34.9746C385.637 34.9746 380.709 37.0277 376.996 40.7405C373.763 43.9742 371.795 48.1317 371.333 52.6144C371.265 53.2817 371.23 53.9489 371.23 54.6333C371.213 64.8134 378.964 73.197 388.87 74.2065Z" fill="url(#paint12_linear_2503_3571)"/>
    <rect x="65.7764" y="170.634" width="158" height="74" rx="6" fill="#25A9E0"/>
    <path opacity="0.7" d="M72.7783 187.462C72.7783 188.985 73.2916 190.234 73.9247 190.234L135.895 190.234C136.528 190.234 137.041 188.985 137.041 187.462C137.041 185.94 136.528 184.691 135.895 184.691L73.9418 184.691C73.2916 184.691 72.7783 185.94 72.7783 187.462Z" fill="white"/>
    <path opacity="0.7" d="M72.7783 196.924C72.7783 198.447 73.2916 199.696 73.9247 199.696L135.895 199.696C136.528 199.696 137.041 198.447 137.041 196.924C137.041 195.401 136.528 194.152 135.895 194.152L73.9418 194.152C73.2916 194.152 72.7783 195.384 72.7783 196.924Z" fill="white"/>
    <path opacity="0.7" d="M72.7783 206.368C72.7783 207.891 73.2916 209.14 73.9247 209.14L135.895 209.14C136.528 209.14 137.041 207.891 137.041 206.368C137.041 204.846 136.528 203.597 135.895 203.597L73.9418 203.597C73.2916 203.597 72.7783 204.829 72.7783 206.368Z" fill="white"/>
    <path opacity="0.7" d="M72.7783 215.813C72.7783 217.335 73.2916 218.584 73.9247 218.584L135.895 218.584C136.528 218.584 137.041 217.335 137.041 215.813C137.041 214.29 136.528 213.041 135.895 213.041L73.9418 213.041C73.2916 213.041 72.7783 214.29 72.7783 215.813Z" fill="white"/>
    <path d="M152.729 200.192C158.682 200.192 163.508 195.366 163.508 189.413C163.508 183.46 158.682 178.634 152.729 178.634C146.776 178.634 141.95 183.46 141.95 189.413C141.95 195.366 146.776 200.192 152.729 200.192Z" fill="white"/>
    <path d="M179.505 200.192C185.458 200.192 190.283 195.366 190.283 189.413C190.283 183.46 185.458 178.634 179.505 178.634C173.551 178.634 168.726 183.46 168.726 189.413C168.726 195.366 173.551 200.192 179.505 200.192Z" fill="white"/>
    <path d="M206.299 200.551C212.252 200.551 217.078 195.725 217.078 189.772C217.078 183.819 212.252 178.993 206.299 178.993C200.346 178.993 195.521 183.819 195.521 189.772C195.521 195.725 200.346 200.551 206.299 200.551Z" fill="white"/>
    <path d="M159.128 187.138C159.453 187.942 159.641 188.832 159.641 189.773C159.641 193.588 156.544 196.702 152.712 196.702C148.896 196.702 145.782 193.605 145.782 189.773C145.782 185.957 148.879 182.843 152.712 182.843C152.831 182.843 152.951 182.843 153.054 182.86L153.054 181.098C152.934 181.098 152.814 181.098 152.712 181.098C147.921 181.098 144.037 184.982 144.037 189.773C144.037 194.563 147.921 198.447 152.712 198.447C157.502 198.447 161.386 194.563 161.386 189.773C161.386 188.592 161.147 187.463 160.719 186.436L159.128 187.138Z" fill="#25A9E0"/>
    <path d="M183.082 195.624C182.021 196.291 180.755 196.684 179.386 196.684C175.571 196.684 172.457 193.588 172.457 189.755C172.457 185.94 175.554 182.826 179.386 182.826C179.506 182.826 179.626 182.826 179.729 182.843L179.729 181.081C179.609 181.081 179.489 181.081 179.386 181.081C174.596 181.081 170.712 184.965 170.712 189.755C170.712 194.546 174.596 198.43 179.386 198.43C181.063 198.43 182.62 197.951 183.937 197.129L183.082 195.624Z" fill="#25A9E0"/>
    <path d="M212.082 193.656C210.833 195.487 208.728 196.684 206.35 196.684C202.535 196.684 199.421 193.588 199.421 189.755C199.421 185.94 202.518 182.826 206.35 182.826C206.47 182.826 206.59 182.826 206.692 182.843L206.692 181.081C206.573 181.081 206.453 181.081 206.35 181.081C201.56 181.081 197.676 184.965 197.676 189.755C197.676 194.546 201.56 198.43 206.35 198.43C209.31 198.43 211.928 196.941 213.502 194.666L212.082 193.656Z" fill="#25A9E0"/>
    <g opacity="0.64">
        <path opacity="0.64" d="M161.506 204.76L143.934 204.76C142.839 204.76 141.933 205.65 141.933 206.762C141.933 207.874 142.822 208.764 143.934 208.764L161.506 208.764C162.601 208.764 163.508 207.874 163.508 206.762C163.508 205.65 162.601 204.76 161.506 204.76Z" fill="white"/>
        <path opacity="0.64" d="M188.299 204.76L170.727 204.76C169.632 204.76 168.726 205.65 168.726 206.762C168.726 207.874 169.615 208.764 170.727 208.764L188.299 208.764C189.394 208.764 190.301 207.874 190.301 206.762C190.301 205.65 189.394 204.76 188.299 204.76Z" fill="white"/>
        <path opacity="0.64" d="M197.521 208.764L215.093 208.764C216.188 208.764 217.095 207.874 217.095 206.762C217.095 205.65 216.205 204.76 215.093 204.76L197.521 204.76C196.426 204.76 195.52 205.65 195.52 206.762C195.52 207.874 196.409 208.764 197.521 208.764Z" fill="white"/>
        <path opacity="0.64" d="M161.506 210.971L143.934 210.971C142.839 210.971 141.933 211.86 141.933 212.973L141.933 224.727C141.933 225.822 142.822 226.729 143.934 226.729L161.506 226.729C162.601 226.729 163.508 225.839 163.508 224.727L163.508 212.973C163.508 211.86 162.601 210.971 161.506 210.971Z" fill="white"/>
        <path opacity="0.64" d="M188.299 210.971L170.727 210.971C169.632 210.971 168.726 211.86 168.726 212.973L168.726 224.727C168.726 225.822 169.615 226.729 170.727 226.729L188.299 226.729C189.394 226.729 190.301 225.839 190.301 224.727L190.301 212.973C190.283 211.86 189.394 210.971 188.299 210.971Z" fill="white"/>
        <path opacity="0.64" d="M215.075 210.971L197.504 210.971C196.409 210.971 195.502 211.86 195.502 212.973L195.502 224.727C195.502 225.822 196.392 226.729 197.504 226.729L215.075 226.729C216.17 226.729 217.077 225.839 217.077 224.727L217.077 212.973C217.077 211.86 216.187 210.971 215.075 210.971Z" fill="white"/>
    </g>
    <path d="M587.768 401.818H542.664C540.257 399.764 544.332 395.109 548.599 394.78C550.459 394.643 552.811 395.027 555.492 395.602C556.121 387.359 559.649 350.252 573.025 351.731C588.041 353.401 573.025 368.08 568.785 376.761C565.64 383.196 562.33 392.425 560.798 396.779C562.029 397.053 563.287 397.3 564.573 397.546C566.57 391.439 573.982 370.845 583.391 372.05C594.442 373.447 590.011 381.717 582.16 386.619C576.416 390.234 569.36 395.355 565.995 397.82C568.84 398.285 571.794 398.587 574.803 398.532C582.543 398.313 586.318 400.586 587.768 401.818Z" fill="#74B570"/>
    <path d="M632.099 407.037H43.1215C41.7637 407.037 40.6455 405.511 40.6455 403.659C40.6455 401.806 41.7637 400.28 43.1215 400.28H632.099C633.457 400.28 634.575 401.806 634.575 403.659C634.575 405.511 633.457 407.037 632.099 407.037Z" fill="#2F333A"/>
    <path d="M456 390.458C456 390.458 462.92 366.386 471.017 369.234C479.14 372.082 456 390.458 456 390.458Z" fill="#74B570"/>
    <path d="M462.318 389.144C462.318 389.144 479.961 377.56 483.845 381.12C487.702 384.708 462.318 389.144 462.318 389.144Z" fill="#74B570"/>
    <defs>
        <linearGradient id="paint0_linear_2503_3571" x1="385.269" y1="516.694" x2="372.684" y2="456.055" gradientUnits="userSpaceOnUse">
            <stop stop-color="#FF928E"/>
            <stop offset="1" stop-color="#FE7062"/>
        </linearGradient>
        <linearGradient id="paint1_linear_2503_3571" x1="350.75" y1="523.858" x2="338.164" y2="463.219" gradientUnits="userSpaceOnUse">
            <stop stop-color="#FF928E"/>
            <stop offset="1" stop-color="#FE7062"/>
        </linearGradient>
        <linearGradient id="paint2_linear_2503_3571" x1="280.986" y1="231.304" x2="266.684" y2="267.917" gradientUnits="userSpaceOnUse">
            <stop stop-color="#FF928E"/>
            <stop offset="1" stop-color="#FE7062"/>
        </linearGradient>
        <linearGradient id="paint3_linear_2503_3571" x1="254.665" y1="181.027" x2="250.375" y2="320.891" gradientUnits="userSpaceOnUse">
            <stop stop-color="#E1473D"/>
            <stop offset="1" stop-color="#E9605A"/>
        </linearGradient>
        <linearGradient id="paint4_linear_2503_3571" x1="529.745" y1="94.5281" x2="487.412" y2="197.5" gradientUnits="userSpaceOnUse">
            <stop stop-color="#FF928E"/>
            <stop offset="1" stop-color="#FE7062"/>
        </linearGradient>
        <linearGradient id="paint5_linear_2503_3571" x1="551.102" y1="438.76" x2="550.689" y2="482.557" gradientUnits="userSpaceOnUse">
            <stop stop-color="#09005D"/>
            <stop offset="1" stop-color="#1A0F91"/>
        </linearGradient>
        <linearGradient id="paint6_linear_2503_3571" x1="552.154" y1="405.922" x2="554.369" y2="388.608" gradientUnits="userSpaceOnUse">
            <stop stop-color="#FEBBBA"/>
            <stop offset="1" stop-color="#FF928E"/>
        </linearGradient>
        <linearGradient id="paint7_linear_2503_3571" x1="594.704" y1="172.633" x2="578.113" y2="195.516" gradientUnits="userSpaceOnUse">
            <stop stop-color="#FF928E"/>
            <stop offset="1" stop-color="#FE7062"/>
        </linearGradient>
        <linearGradient id="paint8_linear_2503_3571" x1="595.823" y1="142.253" x2="502.575" y2="254.951" gradientUnits="userSpaceOnUse">
            <stop stop-color="#E1473D"/>
            <stop offset="1" stop-color="#E9605A"/>
        </linearGradient>
        <linearGradient id="paint9_linear_2503_3571" x1="262.953" y1="66.953" x2="286.133" y2="66.953" gradientUnits="userSpaceOnUse">
            <stop stop-color="#DAE3FE"/>
            <stop offset="1" stop-color="#E9EFFD"/>
        </linearGradient>
        <linearGradient id="paint10_linear_2503_3571" x1="245.888" y1="66.7678" x2="302.877" y2="66.7678" gradientUnits="userSpaceOnUse">
            <stop stop-color="#DAE3FE"/>
            <stop offset="1" stop-color="#E9EFFD"/>
        </linearGradient>
        <linearGradient id="paint11_linear_2503_3571" x1="383.076" y1="54.7767" x2="398.868" y2="54.7767" gradientUnits="userSpaceOnUse">
            <stop stop-color="#DAE3FE"/>
            <stop offset="1" stop-color="#E9EFFD"/>
        </linearGradient>
        <linearGradient id="paint12_linear_2503_3571" x1="371.208" y1="54.6498" x2="410.526" y2="54.6498" gradientUnits="userSpaceOnUse">
            <stop stop-color="#DAE3FE"/>
            <stop offset="1" stop-color="#E9EFFD"/>
        </linearGradient>
    </defs>
</svg>
