<svg xmlns="http://www.w3.org/2000/svg" xmlns:xlink="http://www.w3.org/1999/xlink" width="1752.211" height="1432.699" viewBox="0 0 1752.211 1432.699">
  <defs>
    <linearGradient id="linear-gradient" x1="0.843" y1="0.067" x2="1.505" y2="-0.886" gradientUnits="objectBoundingBox">
      <stop offset="0" stop-color="#09005d"/>
      <stop offset="1" stop-color="#1a0f91"/>
    </linearGradient>
    <linearGradient id="linear-gradient-2" x1="0.457" y1="-0.176" x2="0.507" y2="0.724" xlink:href="#linear-gradient"/>
    <linearGradient id="linear-gradient-3" x1="1.173" y1="-5.73" x2="0.829" y2="-2.467" xlink:href="#linear-gradient"/>
    <linearGradient id="linear-gradient-4" x1="0.531" y1="-3.225" x2="0.472" y2="4.226" gradientUnits="objectBoundingBox">
      <stop offset="0" stop-color="#4f52ff"/>
      <stop offset="1" stop-color="#4042e2"/>
    </linearGradient>
    <linearGradient id="linear-gradient-5" x1="-107.017" y1="4.474" x2="-107.002" y2="8.118" xlink:href="#linear-gradient"/>
    <linearGradient id="linear-gradient-6" x1="-339.901" y1="1.164" x2="-340.164" y2="-0.58" gradientUnits="objectBoundingBox">
      <stop offset="0" stop-color="#febbba"/>
      <stop offset="1" stop-color="#ff928e"/>
    </linearGradient>
    <linearGradient id="linear-gradient-7" x1="-198.982" y1="3.704" x2="-198.955" y2="7.135" xlink:href="#linear-gradient"/>
    <linearGradient id="linear-gradient-8" x1="-390.862" y1="1.13" x2="-391.147" y2="-0.791" xlink:href="#linear-gradient-6"/>
    <linearGradient id="linear-gradient-9" x1="-44.092" y1="0.5" x2="-43.092" y2="0.5" xlink:href="#linear-gradient"/>
    <linearGradient id="linear-gradient-10" x1="-1691.026" y1="2.369" x2="-1689.645" y2="1.878" xlink:href="#linear-gradient-4"/>
    <linearGradient id="linear-gradient-11" x1="8.744" y1="-1.859" x2="6.025" y2="-1.081" gradientUnits="objectBoundingBox">
      <stop offset="0" stop-color="#e1473d"/>
      <stop offset="1" stop-color="#e9605a"/>
    </linearGradient>
    <linearGradient id="linear-gradient-12" x1="-95.952" y1="0.5" x2="-94.952" y2="0.5" xlink:href="#linear-gradient-6"/>
    <linearGradient id="linear-gradient-13" x1="-49.93" y1="0.5" x2="-48.93" y2="0.5" xlink:href="#linear-gradient-6"/>
    <linearGradient id="linear-gradient-14" x1="-190.061" y1="1.029" x2="-188.772" y2="0.222" xlink:href="#linear-gradient-6"/>
    <linearGradient id="linear-gradient-15" x1="-153.437" y1="0.175" x2="-154.754" y2="1.493" xlink:href="#linear-gradient-6"/>
    <linearGradient id="linear-gradient-16" x1="-97.983" y1="0.5" x2="-96.983" y2="0.5" xlink:href="#linear-gradient"/>
    <linearGradient id="linear-gradient-17" x1="-482.883" y1="2.763" x2="-479.621" y2="0.44" xlink:href="#linear-gradient-6"/>
    <linearGradient id="linear-gradient-18" x1="1.809" y1="-0.767" x2="1.346" y2="-0.338" xlink:href="#linear-gradient-11"/>
    <linearGradient id="linear-gradient-19" x1="2.601" y1="-0.192" x2="-0.066" y2="0.719" xlink:href="#linear-gradient-6"/>
    <linearGradient id="linear-gradient-20" x1="-120.902" y1="0.006" x2="-121.106" y2="3.202" xlink:href="#linear-gradient-4"/>
    <linearGradient id="linear-gradient-21" x1="0.457" y1="0.494" x2="1.376" y2="0.943" xlink:href="#linear-gradient-6"/>
    <linearGradient id="linear-gradient-22" x1="-97.181" y1="-2.158" x2="-97.34" y2="6.275" xlink:href="#linear-gradient-4"/>
    <linearGradient id="linear-gradient-23" x1="-188.179" y1="1.885" x2="-188.409" y2="0.326" xlink:href="#linear-gradient-6"/>
    <linearGradient id="linear-gradient-24" x1="-119.186" y1="0.3" x2="-117.902" y2="1.091" xlink:href="#linear-gradient-6"/>
    <linearGradient id="linear-gradient-25" x1="-403.045" y1="-1.101" x2="-398.024" y2="1.863" xlink:href="#linear-gradient-6"/>
    <linearGradient id="linear-gradient-26" x1="-42.559" y1="0.5" x2="-41.559" y2="0.5" xlink:href="#linear-gradient-6"/>
    <linearGradient id="linear-gradient-27" x1="0.528" y1="-10.339" x2="0.499" y2="0.923" xlink:href="#linear-gradient-4"/>
    <linearGradient id="linear-gradient-28" x1="0.513" y1="-0.106" x2="0.49" y2="1.018" xlink:href="#linear-gradient-4"/>
    <linearGradient id="linear-gradient-29" x1="0.619" y1="-10.712" x2="0.562" y2="-5.381" xlink:href="#linear-gradient-11"/>
    <linearGradient id="linear-gradient-30" x1="-75.018" y1="0.302" x2="-74.346" y2="1.263" xlink:href="#linear-gradient-6"/>
    <linearGradient id="linear-gradient-31" x1="-264.434" y1="1.592" x2="-262.822" y2="4.225" xlink:href="#linear-gradient-6"/>
    <linearGradient id="linear-gradient-32" x1="-73.134" y1="-0.346" x2="-72.771" y2="0.297" xlink:href="#linear-gradient"/>
    <linearGradient id="linear-gradient-33" x1="-230.978" y1="0.5" x2="-229.978" y2="0.5" xlink:href="#linear-gradient"/>
    <linearGradient id="linear-gradient-34" x1="-172.05" y1="1.602" x2="-171.015" y2="-1.187" xlink:href="#linear-gradient-6"/>
    <linearGradient id="linear-gradient-35" x1="-148.113" y1="0.5" x2="-147.113" y2="0.5" xlink:href="#linear-gradient"/>
    <linearGradient id="linear-gradient-36" x1="-74.872" y1="1.698" x2="-74.408" y2="-1.193" xlink:href="#linear-gradient-6"/>
    <linearGradient id="linear-gradient-37" x1="-225.884" y1="1.857" x2="-225.629" y2="0.807" xlink:href="#linear-gradient-6"/>
    <linearGradient id="linear-gradient-38" x1="-149.044" y1="1.328" x2="-147.583" y2="-1.033" xlink:href="#linear-gradient-6"/>
    <linearGradient id="linear-gradient-39" x1="-142.486" y1="-0.334" x2="-141.785" y2="0.994" xlink:href="#linear-gradient"/>
    <linearGradient id="linear-gradient-40" x1="-540.934" y1="3.259" x2="-535.618" y2="-4.349" xlink:href="#linear-gradient-6"/>
    <linearGradient id="linear-gradient-41" x1="20.854" y1="55.96" x2="21.437" y2="55.96" xlink:href="#linear-gradient-6"/>
    <linearGradient id="linear-gradient-42" x1="0.794" y1="0.084" x2="-0.492" y2="1.905" xlink:href="#linear-gradient-4"/>
  </defs>
  <g id="softwaredevleopment" transform="translate(-356.54 -109.083)">
    <path id="Path_1155" data-name="Path 1155" d="M265.251,1367.581C21.282,1194.64-59.767,987.257,62.616,778.694s316.4-21.064,452.423-305.434,493.7-427.789,748.125-375.649,594.885,390.066,466.061,1011.745c0,0-93.068,308.471-276.4,371.664S509.221,1540.521,265.251,1367.581Z" transform="translate(350.807 22.632)" fill="#dae3fe" stroke="rgba(0,0,0,0)" stroke-width="1"/>
    <g id="Illustration" transform="translate(-2973.703)">
      <g id="Group_37" data-name="Group 37">
        <g id="Group_30" data-name="Group 30">
          <g id="Group_26" data-name="Group 26">
            <path id="Path_82" data-name="Path 82" d="M4651.254,410.913a1.72,1.72,0,0,1-1.885-2.55c1.16-1.961,2.29-3.958,3.359-5.936a1.722,1.722,0,1,1,3.03,1.639c-1.091,2.015-2.243,4.05-3.426,6.05A1.715,1.715,0,0,1,4651.254,410.913Z" fill="#91b3fa"/>
            <path id="Path_83" data-name="Path 83" d="M4537.98,494.759l-1.518.359a1.722,1.722,0,0,1-.79-3.352l.016,0,1.485-.351c3.954-.952,7.932-2.056,11.824-3.281a1.723,1.723,0,0,1,1.034,3.287C4546.064,492.663,4542.01,493.788,4537.98,494.759Zm-23.813,4.082a1.724,1.724,0,0,1-.228.039c-4.64.479-9.36.786-14.03.912a1.723,1.723,0,0,1-.091-3.445c4.582-.121,9.215-.421,13.766-.893a1.722,1.722,0,0,1,.583,3.387Zm56.861-15.527a1.722,1.722,0,0,1-1.121-3.239c4.167-1.914,8.306-4.015,12.3-6.241a1.722,1.722,0,1,1,1.676,3.008c-4.074,2.27-8.294,4.411-12.542,6.363A1.805,1.805,0,0,1,4571.028,483.314Zm-93.37,15.628a1.678,1.678,0,0,1-.572.039c-4.656-.456-9.342-1.1-13.929-1.908a1.722,1.722,0,0,1,.6-3.392c4.5.794,9.1,1.425,13.667,1.874a1.721,1.721,0,0,1,.235,3.387Zm124.829-34.166a1.722,1.722,0,0,1-1.424-3.061c3.675-2.7,7.305-5.593,10.791-8.6a1.722,1.722,0,1,1,2.248,2.61c-3.553,3.06-7.253,6.008-11,8.761A1.7,1.7,0,0,1,4602.487,464.776ZM4441.87,491.74a1.7,1.7,0,0,1-.91-.03c-4.455-1.376-8.915-2.946-13.258-4.666a1.722,1.722,0,1,1,1.268-3.2c4.261,1.686,8.637,3.226,13.007,4.578a1.722,1.722,0,0,1-.107,3.319Zm187.711-51.446a1.722,1.722,0,0,1-1.682-2.83c3.077-3.4,6.06-6.953,8.868-10.57a1.722,1.722,0,1,1,2.721,2.112c-2.861,3.685-5.9,7.31-9.036,10.77A1.718,1.718,0,0,1,4629.581,440.294Zm-221.308,37.188a1.706,1.706,0,0,1-1.232-.167c-4.079-2.243-8.132-4.683-12.045-7.25a1.722,1.722,0,1,1,1.888-2.88c3.84,2.519,7.816,4.911,11.817,7.115a1.722,1.722,0,0,1-.428,3.182Zm-30.03-20.751a1.717,1.717,0,0,1-1.521-.364c-2.8-2.38-5.562-4.882-8.223-7.439q-1.075-1.033-2.129-2.078a1.722,1.722,0,0,1,2.425-2.446q1.035,1.027,2.089,2.04c2.613,2.51,5.328,4.966,8.071,7.3a1.723,1.723,0,0,1-.712,2.984Zm-25.3-26.325a1.724,1.724,0,0,1-1.76-.611c-2.882-3.673-5.656-7.505-8.247-11.391a1.722,1.722,0,0,1,2.866-1.911c2.541,3.812,5.264,7.572,8.092,11.176a1.723,1.723,0,0,1-.951,2.737Zm-19.512-30.862a1.721,1.721,0,0,1-1.943-.907c-2.08-4.176-4.023-8.491-5.776-12.823a1.722,1.722,0,1,1,3.193-1.292c1.72,4.251,3.626,8.484,5.666,12.58a1.722,1.722,0,0,1-.775,2.309A1.679,1.679,0,0,1,4333.428,399.544Z" fill="#91b3fa"/>
            <path id="Path_84" data-name="Path 84" d="M4320.539,365.311a1.721,1.721,0,0,1-2.067-1.234c-.587-2.217-1.142-4.488-1.65-6.751a1.8,1.8,0,0,1,1.3-2.058,1.722,1.722,0,0,1,2.057,1.3c.5,2.221,1.042,4.449,1.618,6.625a1.721,1.721,0,0,1-1.224,2.106Z" fill="#91b3fa"/>
          </g>
          <g id="Group_29" data-name="Group 29">
            <path id="Path_85" data-name="Path 85" d="M4356.668,330.4a2.173,2.173,0,0,0,1.439,2.07l24.882,8.91a115.133,115.133,0,0,0,13.855,34.632L4385,399.617a2.171,2.171,0,0,0,.387,2.491l22.15,22.681a2.175,2.175,0,0,0,2.482.446l23.879-11.287a115.16,115.16,0,0,0,34.3,14.669l8.32,25.086a2.17,2.17,0,0,0,2.035,1.487l31.7.375a2.172,2.172,0,0,0,2.07-1.439l8.91-24.883a115.131,115.131,0,0,0,34.632-13.854l23.606,11.847a2.171,2.171,0,0,0,2.492-.387l22.68-22.15a2.173,2.173,0,0,0,.446-2.482l-11.287-23.879a115.111,115.111,0,0,0,14.669-34.3l25.086-8.32a2.172,2.172,0,0,0,1.487-2.036l.375-31.7a2.17,2.17,0,0,0-1.44-2.07l-24.882-8.911a115.091,115.091,0,0,0-13.854-34.632l11.848-23.606a2.172,2.172,0,0,0-.387-2.491L4584.545,207.6a2.172,2.172,0,0,0-2.481-.446l-23.88,11.287a115.14,115.14,0,0,0-34.295-14.669l-8.32-25.085a2.171,2.171,0,0,0-2.036-1.488l-31.7-.374a2.172,2.172,0,0,0-2.071,1.439l-8.91,24.882A115.126,115.126,0,0,0,4436.221,217l-23.607-11.848a2.169,2.169,0,0,0-2.49.388l-22.68,22.15a2.173,2.173,0,0,0-.447,2.482l11.287,23.879a115.12,115.12,0,0,0-14.668,34.295l-25.086,8.32a2.172,2.172,0,0,0-1.488,2.036Z" fill="#91b3fa"/>
            <g id="Group_27" data-name="Group 27">
              <path id="Path_86" data-name="Path 86" d="M4503.238,346.071l-.029.007a30.884,30.884,0,1,1,.029-.007Zm-13.187-54.733A25.567,25.567,0,0,0,4502,341.055l.024-.006a25.567,25.567,0,0,0-11.953-49.717Z" fill="#bdd0fb"/>
            </g>
            <g id="Group_28" data-name="Group 28">
              <path id="Path_87" data-name="Path 87" d="M4515.356,392.977a79.158,79.158,0,0,1-85.644-34.8l4.373-2.749a74.007,74.007,0,0,0,93.429,27.908l.155-.071.158-.072a73.951,73.951,0,0,0,42.793-66.177,74.443,74.443,0,0,0-2.055-18.331,73.942,73.942,0,0,0-143.33-1.41l-4.995-1.315a79.095,79.095,0,1,1,95.116,97.014Z" fill="#bdd0fb"/>
            </g>
          </g>
        </g>
        <g id="Group_36" data-name="Group 36">
          <g id="Group_32" data-name="Group 32">
            <path id="Path_91" data-name="Path 91" d="M4856.732,408.687a1.967,1.967,0,0,1-2.126-2.958c1.368-2.176,2.68-4.424,3.9-6.679a1.967,1.967,0,0,1,3.459,1.873c-1.26,2.328-2.615,4.649-4.028,6.9A1.962,1.962,0,0,1,4856.732,408.687Z" fill="#91b3fa"/>
            <path id="Path_92" data-name="Path 92" d="M4791.112,460.07a1.966,1.966,0,0,1-1.069-3.781,119.964,119.964,0,0,0,14.769-5.948,1.966,1.966,0,0,1,1.709,3.542,124,124,0,0,1-15.256,6.144C4791.215,460.043,4791.163,460.058,4791.112,460.07Zm-25.688,5.457a2.049,2.049,0,0,1-.262.046,125.555,125.555,0,0,1-16.43.6,1.966,1.966,0,1,1,.115-3.93,121.5,121.5,0,0,0,15.913-.583,1.966,1.966,0,0,1,.664,3.867Zm62.992-25.4a1.967,1.967,0,0,1-1.676-3.458A122.335,122.335,0,0,0,4838.6,426.03a1.965,1.965,0,1,1,2.81,2.748,125.936,125.936,0,0,1-12.239,10.983A1.983,1.983,0,0,1,4828.416,440.126Zm-105.187,22.436a1.972,1.972,0,0,1-.932,0,124.241,124.241,0,0,1-15.66-5.007,1.966,1.966,0,1,1,1.443-3.658,119.9,119.9,0,0,0,15.164,4.846,1.967,1.967,0,0,1-.015,3.821Zm-38.658-17.148a1.965,1.965,0,0,1-1.559-.281,125.354,125.354,0,0,1-13.006-10.051,1.966,1.966,0,0,1,2.6-2.947,121.367,121.367,0,0,0,12.6,9.736,1.966,1.966,0,0,1-.636,3.543Zm-30.537-29.271a1.966,1.966,0,0,1-2.045-.746,124.287,124.287,0,0,1-8.845-13.865,1.966,1.966,0,0,1,3.449-1.889,120.066,120.066,0,0,0,8.564,13.423,1.968,1.968,0,0,1-1.123,3.077Z" fill="#91b3fa"/>
            <path id="Path_93" data-name="Path 93" d="M4635.237,378.149a1.967,1.967,0,0,1-2.346-1.361c-.745-2.548-1.415-5.15-2-7.732a1.967,1.967,0,0,1,1.457-2.342l.031-.007a1.967,1.967,0,0,1,2.349,1.488c.561,2.5,1.211,5.023,1.933,7.49a1.966,1.966,0,0,1-1.336,2.439C4635.3,378.134,4635.268,378.141,4635.237,378.149Z" fill="#91b3fa"/>
          </g>
          <g id="Group_35" data-name="Group 35">
            <path id="Path_94" data-name="Path 94" d="M4658.666,350.641a1.47,1.47,0,0,0,.975,1.4l16.855,6.036a77.994,77.994,0,0,0,9.384,23.459l-8.025,15.99a1.47,1.47,0,0,0,.262,1.687l15,15.363a1.471,1.471,0,0,0,1.681.3l16.175-7.645a77.97,77.97,0,0,0,23.231,9.936l5.636,16.993a1.469,1.469,0,0,0,1.378,1.007l21.473.254a1.47,1.47,0,0,0,1.4-.975l6.036-16.854a78.006,78.006,0,0,0,23.458-9.385l15.99,8.025a1.472,1.472,0,0,0,1.688-.262l15.363-15a1.471,1.471,0,0,0,.3-1.681l-7.645-16.175a77.986,77.986,0,0,0,9.936-23.231l16.992-5.635a1.472,1.472,0,0,0,1.008-1.379l.254-21.472a1.474,1.474,0,0,0-.975-1.4l-16.855-6.035a77.984,77.984,0,0,0-9.384-23.459l8.025-15.991a1.472,1.472,0,0,0-.262-1.687l-15-15.363a1.472,1.472,0,0,0-1.681-.3l-16.176,7.645a77.991,77.991,0,0,0-23.23-9.936l-5.636-16.992a1.47,1.47,0,0,0-1.378-1.008l-21.473-.253a1.471,1.471,0,0,0-1.4.974l-6.036,16.855a77.955,77.955,0,0,0-23.458,9.385l-15.991-8.026a1.47,1.47,0,0,0-1.687.263l-15.363,15a1.469,1.469,0,0,0-.3,1.68l7.645,16.176a77.991,77.991,0,0,0-9.936,23.23l-16.992,5.636a1.469,1.469,0,0,0-1.008,1.379Z" fill="#91b3fa"/>
            <g id="Group_33" data-name="Group 33">
              <path id="Path_95" data-name="Path 95" d="M4758.229,362.423l-.021.005a21.912,21.912,0,1,1,.021-.005Zm-8.929-37.067a16.114,16.114,0,0,0,7.533,31.336l.015,0a16.115,16.115,0,1,0-7.548-31.333Z" fill="#bdd0fb"/>
            </g>
            <g id="Group_34" data-name="Group 34">
              <path id="Path_96" data-name="Path 96" d="M4766.44,394.2a54.825,54.825,0,0,1-58.593-22.984q-.366-.552-.718-1.113l4.993-3.138a49.212,49.212,0,0,0,6.446,8.17h0a48.9,48.9,0,0,0,8.791,7.133l.026.016.047.03a49.025,49.025,0,0,0,46.343,3.155,48.477,48.477,0,0,0,10.89-6.813c.109-.089.216-.178.323-.269l.261-.223c.223-.19.444-.381.664-.577q.894-.792,1.758-1.636a48.546,48.546,0,0,0,14.72-34.383,49.173,49.173,0,0,0-1.359-12.117,48.885,48.885,0,0,0-94.759-.935l-5.705-1.5A54.778,54.778,0,1,1,4766.44,394.2Z" fill="#bdd0fb"/>
            </g>
          </g>
        </g>
      </g>
      <g id="Group_40" data-name="Group 40">
        <g id="Group_38" data-name="Group 38">
          <path id="Path_97" data-name="Path 97" d="M4115.419,1025.972l-27.728,248.676h321.691l-41.9-248.676Z" fill="url(#linear-gradient)"/>
          <path id="Path_98" data-name="Path 98" d="M3555.649,395.515V981.569a88.9,88.9,0,0,0,86.613,88.878c214.056,5.52,962.719,18.9,1166.485,15.9a65.417,65.417,0,0,0,64.4-63.553c3.929-136.149,10.31-463.54-13.3-615.535a67.317,67.317,0,0,0-64.367-56.979c-179.352-5.738-972.984-23.956-1176.655-19.382A64.622,64.622,0,0,0,3555.649,395.515Z" fill="url(#linear-gradient-2)"/>
          <path id="Path_99" data-name="Path 99" d="M3592.423,392.662V949.454a51.509,51.509,0,0,0,50.74,51.5L4779.432,1015a50.132,50.132,0,0,0,50.88-49.94l1.9-551.817a36.661,36.661,0,0,0-35.77-36.788l-1163.33-23.5A39.725,39.725,0,0,0,3592.423,392.662Z" fill="#7d97f4"/>
          <path id="Path_100" data-name="Path 100" d="M4838.868,1038.067h-.021L3592.392,1016.83a1.827,1.827,0,0,1,.062-3.654L4838.9,1034.413a1.827,1.827,0,0,1-.03,3.654Z" fill="#7d97f4"/>
          <path id="Path_101" data-name="Path 101" d="M4478.675,1325.527H4007.858c-12.79,0-22.4-9.106-19.923-18.887l6.042-23.892c1.816-7.186,9.721-12.461,19.11-12.754l453.885-14.163c9.809-.306,18.494,4.9,20.631,12.368l10.891,38.056C4501.324,1316.142,4491.673,1325.527,4478.675,1325.527Z" fill="url(#linear-gradient-3)"/>
        </g>
        <g id="Group_39" data-name="Group 39" opacity="0.56">
          <path id="Path_102" data-name="Path 102" d="M4189.033,493.96l-109.535-.712a3.776,3.776,0,0,1-3.8-3.756l.111-14.751a3.78,3.78,0,0,1,3.851-3.7l109.535.712a3.776,3.776,0,0,1,3.8,3.756l-.111,14.752A3.779,3.779,0,0,1,4189.033,493.96Z" fill="#fff" opacity="0.53"/>
          <path id="Path_103" data-name="Path 103" d="M4442.365,495.606l-219.275-1.425a6,6,0,0,1-6.04-5.971l.078-10.354a6.007,6.007,0,0,1,6.121-5.883l219.275,1.425a6,6,0,0,1,6.04,5.971l-.078,10.353A6.007,6.007,0,0,1,4442.365,495.606Z" fill="#fff" opacity="0.53"/>
          <path id="Path_104" data-name="Path 104" d="M4189.68,533.037l-109.535-.712a3.776,3.776,0,0,1-3.8-3.756l.111-14.752a3.78,3.78,0,0,1,3.851-3.7l109.534.712a3.776,3.776,0,0,1,3.8,3.756l-.111,14.751A3.78,3.78,0,0,1,4189.68,533.037Z" fill="#fff" opacity="0.53"/>
          <path id="Path_105" data-name="Path 105" d="M4631.549,535.908l-326.88-2.124a6,6,0,0,1-6.04-5.971l.078-10.354a6.009,6.009,0,0,1,6.121-5.884l326.88,2.124a6,6,0,0,1,6.041,5.971l-.079,10.354A6.008,6.008,0,0,1,4631.549,535.908Z" fill="#fff" opacity="0.53"/>
          <path id="Path_106" data-name="Path 106" d="M4189.3,572.05l-109.535-.712a3.776,3.776,0,0,1-3.8-3.756l.111-14.752a3.779,3.779,0,0,1,3.85-3.7l109.535.712a3.777,3.777,0,0,1,3.8,3.756l-.111,14.751A3.781,3.781,0,0,1,4189.3,572.05Z" fill="#fff" opacity="0.53"/>
          <path id="Path_107" data-name="Path 107" d="M4775.5,575.859l-429.632-2.792a6,6,0,0,1-6.04-5.971l.078-10.354a6.008,6.008,0,0,1,6.121-5.884l429.632,2.792a6,6,0,0,1,6.041,5.971l-.079,10.354A6.008,6.008,0,0,1,4775.5,575.859Z" fill="#fff" opacity="0.53"/>
          <path id="Path_108" data-name="Path 108" d="M4189.947,611.126l-109.535-.712a3.776,3.776,0,0,1-3.8-3.756l.112-14.751a3.779,3.779,0,0,1,3.85-3.7l109.535.712a3.776,3.776,0,0,1,3.8,3.756l-.112,14.751A3.778,3.778,0,0,1,4189.947,611.126Z" fill="#fff" opacity="0.53"/>
          <path id="Path_109" data-name="Path 109" d="M4777.524,614.945l-429.633-2.792a6,6,0,0,1-6.04-5.971l.078-10.354a6.008,6.008,0,0,1,6.121-5.884l429.633,2.792a6,6,0,0,1,6.04,5.971l-.078,10.354A6.009,6.009,0,0,1,4777.524,614.945Z" fill="#fff" opacity="0.53"/>
          <path id="Path_110" data-name="Path 110" d="M4189.285,651.665l-109.534-.712a3.776,3.776,0,0,1-3.8-3.756l.111-14.751a3.78,3.78,0,0,1,3.851-3.7l109.535.712a3.776,3.776,0,0,1,3.8,3.756l-.111,14.752A3.78,3.78,0,0,1,4189.285,651.665Z" fill="#fff" opacity="0.53"/>
          <path id="Path_111" data-name="Path 111" d="M4776.341,655.48l-429.632-2.792a6,6,0,0,1-6.041-5.971l.079-10.354a6.007,6.007,0,0,1,6.121-5.884l429.632,2.792a6,6,0,0,1,6.04,5.971l-.078,10.354A6.007,6.007,0,0,1,4776.341,655.48Z" fill="#fff" opacity="0.53"/>
          <path id="Path_112" data-name="Path 112" d="M4189.932,690.742,4080.4,690.03a3.776,3.776,0,0,1-3.8-3.756l.111-14.752a3.78,3.78,0,0,1,3.851-3.7l109.535.712a3.776,3.776,0,0,1,3.8,3.756l-.111,14.751A3.781,3.781,0,0,1,4189.932,690.742Z" fill="#fff" opacity="0.53"/>
          <path id="Path_113" data-name="Path 113" d="M4480.117,692.627l-258.512-1.68a6,6,0,0,1-6.041-5.971l.079-10.353a6.007,6.007,0,0,1,6.121-5.884l258.512,1.68a6,6,0,0,1,6.04,5.971l-.078,10.354A6.006,6.006,0,0,1,4480.117,692.627Z" fill="#fff" opacity="0.53"/>
          <path id="Path_114" data-name="Path 114" d="M4189.552,729.755l-109.535-.712a3.776,3.776,0,0,1-3.8-3.756l.111-14.752a3.78,3.78,0,0,1,3.851-3.7l109.534.712a3.777,3.777,0,0,1,3.8,3.756l-.111,14.752A3.78,3.78,0,0,1,4189.552,729.755Z" fill="#fff" opacity="0.53"/>
          <path id="Path_115" data-name="Path 115" d="M4607.607,732.471l-325.295-2.114a6,6,0,0,1-6.04-5.971l.078-10.353a6.009,6.009,0,0,1,6.122-5.884l325.295,2.114a6,6,0,0,1,6.04,5.971l-.078,10.354A6.008,6.008,0,0,1,4607.607,732.471Z" fill="#fff" opacity="0.53"/>
          <path id="Path_116" data-name="Path 116" d="M4190.2,768.831l-109.535-.712a3.775,3.775,0,0,1-3.8-3.756l.111-14.751a3.779,3.779,0,0,1,3.85-3.7l109.535.712a3.776,3.776,0,0,1,3.8,3.756l-.111,14.751A3.78,3.78,0,0,1,4190.2,768.831Z" fill="#fff" opacity="0.53"/>
          <path id="Path_117" data-name="Path 117" d="M4778.37,772.654l-444.638-2.89a6,6,0,0,1-6.041-5.971l.078-10.354a6.01,6.01,0,0,1,6.122-5.884l444.638,2.89a6,6,0,0,1,6.04,5.971l-.078,10.354A6.008,6.008,0,0,1,4778.37,772.654Z" fill="#fff" opacity="0.53"/>
          <path id="Path_118" data-name="Path 118" d="M4187.26,885.411l-109.534-.712a3.775,3.775,0,0,1-3.8-3.756l.111-14.751a3.779,3.779,0,0,1,3.851-3.7l109.535.712a3.775,3.775,0,0,1,3.8,3.756l-.111,14.751A3.779,3.779,0,0,1,4187.26,885.411Z" fill="#fff" opacity="0.53"/>
          <path id="Path_119" data-name="Path 119" d="M4477.445,887.3l-258.512-1.68a6,6,0,0,1-6.04-5.971l.078-10.354a6.008,6.008,0,0,1,6.121-5.884l258.512,1.68a6,6,0,0,1,6.041,5.971l-.079,10.354A6.008,6.008,0,0,1,4477.445,887.3Z" fill="#fff" opacity="0.53"/>
          <path id="Path_120" data-name="Path 120" d="M4186.88,924.424l-109.535-.711a3.776,3.776,0,0,1-3.8-3.756l.111-14.752a3.78,3.78,0,0,1,3.851-3.7l109.535.712a3.775,3.775,0,0,1,3.8,3.756l-.111,14.751A3.78,3.78,0,0,1,4186.88,924.424Z" fill="#fff" opacity="0.53"/>
          <path id="Path_121" data-name="Path 121" d="M4604.754,927.14l-325.295-2.114a6,6,0,0,1-6.04-5.971l.078-10.354a6.009,6.009,0,0,1,6.121-5.884l325.295,2.114a6,6,0,0,1,6.041,5.971l-.079,10.354A6.008,6.008,0,0,1,4604.754,927.14Z" fill="#fff" opacity="0.53"/>
          <path id="Path_122" data-name="Path 122" d="M4187.527,963.5l-109.535-.712a3.776,3.776,0,0,1-3.8-3.756l.111-14.751a3.779,3.779,0,0,1,3.851-3.7l109.535.711a3.776,3.776,0,0,1,3.8,3.756l-.111,14.752A3.78,3.78,0,0,1,4187.527,963.5Z" fill="#fff" opacity="0.53"/>
          <path id="Path_123" data-name="Path 123" d="M4775.517,967.322l-444.639-2.889a6,6,0,0,1-6.04-5.971l.078-10.354a6.009,6.009,0,0,1,6.122-5.884l444.638,2.89a6,6,0,0,1,6.04,5.97l-.078,10.354A6.009,6.009,0,0,1,4775.517,967.322Z" fill="#fff" opacity="0.53"/>
          <path id="Path_124" data-name="Path 124" d="M4188.529,808.559l-109.535-.712a3.776,3.776,0,0,1-3.8-3.756l.111-14.752a3.78,3.78,0,0,1,3.851-3.7l109.535.712a3.776,3.776,0,0,1,3.8,3.756l-.111,14.752A3.78,3.78,0,0,1,4188.529,808.559Z" fill="#fff" opacity="0.53"/>
          <path id="Path_125" data-name="Path 125" d="M4774.578,812.367l-444.639-2.889a6,6,0,0,1-6.04-5.971l.078-10.354a6.009,6.009,0,0,1,6.121-5.884l444.639,2.89a6,6,0,0,1,6.04,5.971l-.078,10.354A6.009,6.009,0,0,1,4774.578,812.367Z" fill="#fff" opacity="0.53"/>
          <path id="Path_126" data-name="Path 126" d="M4189.176,847.635l-109.535-.711a3.776,3.776,0,0,1-3.8-3.756l.111-14.752a3.78,3.78,0,0,1,3.851-3.7l109.534.712a3.777,3.777,0,0,1,3.8,3.756l-.111,14.751A3.779,3.779,0,0,1,4189.176,847.635Z" fill="#fff" opacity="0.53"/>
          <path id="Path_127" data-name="Path 127" d="M4776.684,851.453l-444.638-2.889a6,6,0,0,1-6.041-5.971l.078-10.354a6.009,6.009,0,0,1,6.122-5.884l444.638,2.89a6,6,0,0,1,6.04,5.971l-.078,10.354A6.008,6.008,0,0,1,4776.684,851.453Z" fill="#fff" opacity="0.53"/>
          <path id="Path_128" data-name="Path 128" d="M4024.374,711.725H3651.112c-14.557,0-26.358-5.078-26.358-11.341V464.371c0-6.347,12.106-11.459,26.855-11.339l374.734,3.042c14.388.117,25.9,5.178,25.861,11.37l-1.472,232.971C4050.693,706.666,4038.9,711.725,4024.374,711.725Z" fill="#fff" opacity="0.35"/>
          <path id="Path_129" data-name="Path 129" d="M4022.764,986.522H3649.5c-14.557,0-26.358-5.077-26.358-11.341V739.168c0-6.347,12.106-11.458,26.855-11.339l374.733,3.043c14.389.116,25.9,5.177,25.861,11.369l-1.471,232.971C4049.082,981.463,4037.293,986.522,4022.764,986.522Z" fill="#fff" opacity="0.35"/>
        </g>
        <path id="Path_130" data-name="Path 130" d="M4832.139,434.778l.074-21.544a36.658,36.658,0,0,0-35.77-36.785l-1163.3-23.5a39.7,39.7,0,0,0-40.658,39.714v42.116Z" fill="url(#linear-gradient-4)"/>
        <circle id="Ellipse_1" data-name="Ellipse 1" cx="19.359" cy="19.359" r="19.359" transform="translate(3631.207 376.7)" fill="#7d97f4"/>
        <circle id="Ellipse_2" data-name="Ellipse 2" cx="19.359" cy="19.359" r="19.359" transform="translate(3748.974 376.699)" fill="#7d97f4"/>
        <circle id="Ellipse_3" data-name="Ellipse 3" cx="19.359" cy="19.359" r="19.359" transform="translate(3689.284 376.7)" fill="#7d97f4"/>
      </g>
      <g id="Group_41" data-name="Group 41">
        <path id="Path_131" data-name="Path 131" d="M3762.285,1474.305c-1.8,0-3.267-.908-3.267-2.028V1229.806c0-1.12,1.463-2.028,3.267-2.028s3.268.908,3.268,2.028v242.471C3765.553,1473.4,3764.09,1474.305,3762.285,1474.305Z" fill="#7d97f4"/>
        <path id="Path_132" data-name="Path 132" d="M3660.823,1474.305c-1.8,0-3.267-.908-3.267-2.028V1229.806c0-1.12,1.462-2.028,3.267-2.028s3.267.908,3.267,2.028v242.471C3664.09,1473.4,3662.628,1474.305,3660.823,1474.305Z" fill="#7d97f4"/>
        <path id="Path_133" data-name="Path 133" d="M3545.668,1474.386a3.268,3.268,0,1,0,6.014,2.558l105.925-249.164c-2.272-.1-4.543-.354-6.815-.673Z" fill="#7d97f4"/>
        <path id="Path_134" data-name="Path 134" d="M3648.878,1474.386a3.268,3.268,0,0,0,6.015,2.558l106.825-251.28q-3.454-.241-6.93-.4Z" fill="#7d97f4"/>
        <path id="Path_135" data-name="Path 135" d="M3773.932,1232.972H3554.449a4.085,4.085,0,0,1-4.084-4.085h0a4.085,4.085,0,0,1,4.084-4.084h219.483a4.085,4.085,0,0,1,4.084,4.084h0A4.085,4.085,0,0,1,3773.932,1232.972Z" fill="#7d97f4"/>
        <rect id="Rectangle_9" data-name="Rectangle 9" width="103.516" height="6.535" transform="translate(3625.286 1292.156)" fill="#7d97f4"/>
        <path id="Path_136" data-name="Path 136" d="M3701.4,1363.348H3597.88a3.268,3.268,0,1,1,0-6.535H3701.4a3.268,3.268,0,1,1,0,6.535Z" fill="#7d97f4"/>
        <path id="Path_137" data-name="Path 137" d="M3673.447,1426.387H3569.931a3.267,3.267,0,1,1,0-6.535h103.516a3.267,3.267,0,0,1,0,6.535Z" fill="#7d97f4"/>
      </g>
      <g id="Group_53" data-name="Group 53">
        <g id="Group_45" data-name="Group 45">
          <g id="Group_42" data-name="Group 42">
            <path id="Path_138" data-name="Path 138" d="M4516.749,1481.5a163.977,163.977,0,0,1,1.975,17.194,7.4,7.4,0,0,1-6.674,7.816c-13.807,1.339-45.237,3.812-65.3.916a3.369,3.369,0,0,1-1.85-5.8c8.275-7.709,28.259-22.7,61.151-25.983Z" fill="url(#linear-gradient-5)"/>
            <path id="Path_139" data-name="Path 139" d="M4523.614,1463.78l-6.981,17.111a5.7,5.7,0,0,1-5.855,3.539,31.081,31.081,0,0,1-5.7-1.105,7.493,7.493,0,0,1-4.983-9.316l5.269-17.624Z" fill="url(#linear-gradient-6)"/>
            <path id="Path_140" data-name="Path 140" d="M4642.965,1495.129s-13.979,11.7-19.426,26.7a6.379,6.379,0,0,0,6.058,8.474h28.768a6.784,6.784,0,0,0,6.7-7.934C4663.237,1512.008,4657.953,1495.172,4642.965,1495.129Z" fill="url(#linear-gradient-7)"/>
            <path id="Path_141" data-name="Path 141" d="M4660.282,1479.907s-2.823,12.5-4.994,20.757a2.64,2.64,0,0,1-3.453,1.8c-4.354-1.556-7.9-2.245-10.472-1.9a2.037,2.037,0,0,1-2.245-2.032l-.271-20.758Z" fill="url(#linear-gradient-8)"/>
            <path id="Path_142" data-name="Path 142" d="M4585.935,1198.677l-85.028,259.4s16.309,10.68,24.079,10.235l100.994-208.47s17.673,128.452,9.109,220.671l28.928,2.207s47.037-235.665,11.41-316.383Z" fill="url(#linear-gradient-9)"/>
            <path id="Path_143" data-name="Path 143" d="M4625.434,1257.6a.9.9,0,0,0,.1-.006.824.824,0,0,0,.714-.92l-3.3-26.19a.824.824,0,0,0-1.634.205l3.3,26.191A.824.824,0,0,0,4625.434,1257.6Z" fill="url(#linear-gradient-10)"/>
          </g>
          <path id="Path_144" data-name="Path 144" d="M4569.994,970.419s68.889,6.117,59.144,55.2c0,0,38.081,71.663,55.884,156.081a4.964,4.964,0,0,1-4.028,5.9l-114.723,19.643a6.177,6.177,0,0,1-7.022-4.541l-27.411-105.939-10.682,49.255-33.94-8.843,28.572-144.734S4519.774,971.326,4569.994,970.419Z" fill="#91b3fa"/>
          <path id="Path_145" data-name="Path 145" d="M4531.255,1092.027a.891.891,0,0,0,.182-.019.855.855,0,0,0,.653-1.017l-9.563-43.91a.854.854,0,0,0-1.67.363l9.563,43.911A.857.857,0,0,0,4531.255,1092.027Z" fill="url(#linear-gradient-11)"/>
          <path id="Path_146" data-name="Path 146" d="M4538.179,1222.692a16.379,16.379,0,0,1,11.847-1.541l7.982,1.987a2.892,2.892,0,0,0,3.572-2.484l8.261-73.52c10.328,4.9,25.228,4.319,30.142,3.96l-19.011,86.674h-66.528Z" fill="url(#linear-gradient-12)"/>
          <path id="Path_147" data-name="Path 147" d="M4361.416,1063.218l2.011-6.683a13.219,13.219,0,0,1,7.726-8.455l36.369-14.625s.549-4.664-7.685-7.834-6.308-12.391-6.308-12.391,11.248,5.132,27.715,13.27c9.417,4.654,14.7,12.871,17.5,19.056l82.409,100.464-9.675,6.648a25.832,25.832,0,0,1-37.452-9.191l-44.644-85.609C4406.971,1064.6,4384.29,1065.889,4361.416,1063.218Z" fill="url(#linear-gradient-13)"/>
          <g id="Group_44" data-name="Group 44">
            <path id="Path_148" data-name="Path 148" d="M4547.676,923.552l21.189,59.3s-18.762,14.668-32.454,9.708l-10.677-33.993S4533.888,917.023,4547.676,923.552Z" fill="url(#linear-gradient-14)"/>
            <g id="Group_43" data-name="Group 43">
              <path id="Path_149" data-name="Path 149" d="M4484.439,902.255c0,.914,20.411,57.779,20.411,57.779l32.221-12.345-11.337-56.77S4484.439,886.957,4484.439,902.255Z" fill="url(#linear-gradient-15)"/>
              <path id="Path_150" data-name="Path 150" d="M4520.082,904.75l8.308,29.417a4.221,4.221,0,0,1,.162,1.15c0,2.4-.591,10.655-9,9.532-7.631-1.019-14.61-1.835-19.048.255a4.268,4.268,0,0,0-2.2,5.3,184.516,184.516,0,0,0,11.606,26.194,4.257,4.257,0,0,0,5.477,1.754c6.052-2.753,18.652-8.917,27.628-16.25a4.273,4.273,0,0,0,1.511-4.1c-1.412-7.526-5.619-30.414-5.8-36.973-.175-6.157,6.734-10.857,9.775-12.623a4.2,4.2,0,0,0,1.977-2.655c.954-3.962,1.765-12.931-9.675-14.907a4.276,4.276,0,0,1-3.469-5.086c.968-4.739.658-11.714-8.341-14.282-9.148-2.611-14.9,2.9-17.832,7.117a4.271,4.271,0,0,1-5.295,1.414,3.376,3.376,0,0,0-3.786.678,4.206,4.206,0,0,1-6.153-.936c-2.667-3.926-7.513-7.845-15.717-5.191-14.557,4.71-13.861,21.494-8.525,30.618s20.829,3.121,28.163-2.925c5.576-4.6,14.067-1.847,17.816-.265A4.235,4.235,0,0,1,4520.082,904.75Z" fill="url(#linear-gradient-16)"/>
              <path id="Path_151" data-name="Path 151" d="M4541.638,931.774s-8.616-16.3-2.918-21.415,15.349-4.281,15.089,8.464C4553.486,934.675,4541.638,931.774,4541.638,931.774Z" fill="url(#linear-gradient-17)"/>
            </g>
          </g>
          <path id="Path_152" data-name="Path 152" d="M4593.3,1152.2a82.646,82.646,0,0,0,8.42-.4l.612-.069,25.084-116.953a.854.854,0,1,0-1.67-.359l-24.824,115.74c-3.733.328-23.668,1.652-34.192-5.8l21.73-101.61-4.536-8.547a.854.854,0,1,0-1.509.8l4.245,8-21.83,102.077.436.328C4572.868,1151.115,4585.117,1152.2,4593.3,1152.2Z" fill="url(#linear-gradient-18)"/>
        </g>
        <g id="Group_46" data-name="Group 46">
          <path id="Path_153" data-name="Path 153" d="M4560.838,1540.317a4.568,4.568,0,0,0,1.949-.441,5.587,5.587,0,0,0,2.586-7.083l-103.6-262.879a4.8,4.8,0,0,0-6.491-2.822,5.589,5.589,0,0,0-2.585,7.084l103.6,262.878A4.949,4.949,0,0,0,4560.838,1540.317Z" fill="#7d97f4"/>
          <path id="Path_154" data-name="Path 154" d="M4444.123,1540.317a4.947,4.947,0,0,0,4.54-3.263l103.6-262.878a5.589,5.589,0,0,0-2.586-7.084,4.794,4.794,0,0,0-6.49,2.822l-103.6,262.879a5.587,5.587,0,0,0,2.586,7.083A4.572,4.572,0,0,0,4444.123,1540.317Z" fill="#7d97f4"/>
          <path id="Path_155" data-name="Path 155" d="M4119.836,1540.317a4.575,4.575,0,0,0,1.95-.441,5.586,5.586,0,0,0,2.585-7.083l-103.6-262.879a4.8,4.8,0,0,0-6.49-2.822,5.589,5.589,0,0,0-2.586,7.084l103.6,262.878A4.948,4.948,0,0,0,4119.836,1540.317Z" fill="#7d97f4"/>
          <path id="Path_156" data-name="Path 156" d="M4003.122,1540.317a4.947,4.947,0,0,0,4.54-3.263l103.6-262.878a5.589,5.589,0,0,0-2.586-7.084,4.794,4.794,0,0,0-6.49,2.822l-103.6,262.879a5.588,5.588,0,0,0,2.586,7.083A4.566,4.566,0,0,0,4003.122,1540.317Z" fill="#7d97f4"/>
        </g>
        <g id="Group_47" data-name="Group 47">
          <rect id="Rectangle_10" data-name="Rectangle 10" width="12.249" height="132.471" transform="translate(4177.064 1363.173)" fill="#7d97f4"/>
          <path id="Path_157" data-name="Path 157" d="M4129.545,1498.2h107.288v-3.555a4.42,4.42,0,0,0-4.419-4.419h-98.45a4.42,4.42,0,0,0-4.419,4.419Z" fill="#7d97f4"/>
          <rect id="Rectangle_11" data-name="Rectangle 11" width="134.894" height="38.257" rx="13.173" transform="translate(4113.623 1333.491)" fill="#7d97f4"/>
        </g>
        <g id="Group_48" data-name="Group 48">
          <path id="Path_158" data-name="Path 158" d="M4273.621,1274.845s18.2,2.822,38.667,16.5a10.2,10.2,0,0,1,4.5,9.75c-2.451,19.411-12.527,82.239-45.752,143.6a15.454,15.454,0,0,0-1.482,10.6l5.772,26.862,10.705,10.038h-27.572l-18.359-49.682,7.85-2.482a14.854,14.854,0,0,0,10.373-13.906l.921-53.294c-.785-23.744,14.559-40.126,14.559-40.126l-44.034-2.143Z" fill="url(#linear-gradient-19)"/>
          <path id="Path_159" data-name="Path 159" d="M4296.8,1497.046c2.511,3.286-27.027,7.623-41.95.435,0,0-20.686-35.992-20.686-54.523,0,0,1.642-3.779,13.788-2.922,0,0,6.946,42.616,14.28,47.39s20.52.483,20.52.483S4293.1,1492.2,4296.8,1497.046Z" fill="url(#linear-gradient-20)"/>
          <path id="Path_160" data-name="Path 160" d="M4235.343,1333.491c.234-.406,47.41-5.673,47.41-5.673s-1.544,14.344,3.281,34.09,74.089,105.293,74.089,105.293l-7.262,23.023c22.454,7.822,44.542,9.073,66.277,3.987l-45.008-27.01s-42.123-143.546-67.925-169.155l-47.287-16.36Z" fill="url(#linear-gradient-21)"/>
          <path id="Path_161" data-name="Path 161" d="M4129.545,1249.966s-27.18,40.427-29.41,58.867,7.445,25.935,35.964,27.17,104.652,1.216,104.652,1.216l64.979-55.533s-47.354-16.9-59.665-21.675S4129.545,1249.966,4129.545,1249.966Z"/>
          <path id="Path_162" data-name="Path 162" d="M4355.6,1482.471s-7.819,7.573-2.537,16c0,0,61.939,10.979,78.756,6,0,0-3.492-7.969-22.429-17.041l1.4,1.072a2.262,2.262,0,0,1-1.5,4.058C4396.82,1491.845,4371,1489.559,4355.6,1482.471Z" fill="url(#linear-gradient-22)"/>
        </g>
        <g id="Group_50" data-name="Group 50">
          <path id="Path_163" data-name="Path 163" d="M4184.473,1022.86c-4.107,1.281-18.911,6.594-17,16.115a1.742,1.742,0,0,1-2.181,2c-6.379-1.717-20.47-3.881-29.205,7.064-7.713,9.664-1.949,18.783,2.75,23.789a1.752,1.752,0,0,1-1.464,2.964c-11.728-1.481-37.21-1.835-41.379,22.036-3.888,22.261,11.606,28.538,20.795,30.308a1.743,1.743,0,0,1,.581,3.191c-4.584,2.909-9.9,8.918-7.749,20.778,3.364,18.589,39.809,17.068,44.069,16.826a1.726,1.726,0,0,0,.759-.228l58.376-33.292a1.759,1.759,0,0,0,.86-1.226l11.785-68.062a1.752,1.752,0,0,0-.465-1.515l-38.756-40.282A1.739,1.739,0,0,0,4184.473,1022.86Z"/>
          <path id="Path_164" data-name="Path 164" d="M4203.05,1244.614s31.651-30.138,47.232-50.1a42.357,42.357,0,0,0,7.171-38.118c-7.113-23.964-19.754-48.785-20.907-52.648-1.767-5.921-37.256-5.675-37.256-5.675s-69.836,45.324-97.274,122.1l30.815,9.593s18.234-30.591,36.25-50.04c0,0-31.174,41.183-32.272,58.042Z" fill="#4042e2"/>
          <path id="Path_165" data-name="Path 165" d="M4240.838,1070.656c-.37,1.23-9.633,31.938-10.358,32.575s-20.314,1.691-29.534-4.61l15.643-32.747Z" fill="url(#linear-gradient-23)"/>
          <g id="Group_49" data-name="Group 49">
            <path id="Path_166" data-name="Path 166" d="M4225.622,1006.158s16.723,7.061,28.093,31.225,2.879,35.321-7.786,36.853-26.616,1.3-43.487-14.312S4203.884,997.788,4225.622,1006.158Z" fill="url(#linear-gradient-24)"/>
            <path id="Path_167" data-name="Path 167" d="M4213.783,1047.024s-12.616-35.353,18.728-35.771l7.375,5.155s11.5-19.6-7.375-28.958-40.968-1.628-49,23.8-9.4,42.454,3.96,54.621,18.871-1.629,18.871-1.629-7.277-11.38-4.315-17.468,9.8,1.259,9.8,1.259Z"/>
            <path id="Path_168" data-name="Path 168" d="M4215.108,1051.768s-6.2-18-14.889-10.959c-11.286,9.141,5.144,18.028,12.955,19.922Z" fill="url(#linear-gradient-25)"/>
          </g>
          <path id="Path_169" data-name="Path 169" d="M4267.531,1246.852l-23.254-22.415-32.17,13.591s-32.022,4.961-50.349,0l-18.327-4.962-41.415-12.893-6.505,18.383a11.067,11.067,0,0,0,4.044,12.716,73.068,73.068,0,0,0,10.46,6.515c5.454,2.386,134.447-1.65,134.447-1.65Z" fill="url(#linear-gradient-26)"/>
        </g>
        <g id="Group_51" data-name="Group 51">
          <path id="Path_170" data-name="Path 170" d="M4179.528,1257.419c.1.005.206.008.31.007l134.9-.147a6.038,6.038,0,1,0-.014-12.076l-134.9.148a6.038,6.038,0,0,0-.3,12.068Z" fill="url(#linear-gradient-27)"/>
          <path id="Path_171" data-name="Path 171" d="M4436,1134.941H4323.658a21.412,21.412,0,0,0-19.366,12.279l-51.936,110.127h139.612a13.012,13.012,0,0,0,12.1-8.23l40.274-101.907A8.972,8.972,0,0,0,4436,1134.941Z" fill="url(#linear-gradient-28)"/>
          <path id="Path_172" data-name="Path 172" d="M4356.854,1191.407c-2.435,7.563-.636,14.909,4.017,16.407s10.4-3.42,12.833-10.984.636-14.909-4.017-16.406S4359.289,1183.843,4356.854,1191.407Z" fill="#7d97f4"/>
        </g>
        <g id="Group_52" data-name="Group 52">
          <path id="Path_173" data-name="Path 173" d="M4450.081,1253.111h132.761v-13.7H4450.081C4452.923,1239.411,4452.923,1253.111,4450.081,1253.111Z" fill="#91b3fa"/>
          <path id="Path_174" data-name="Path 174" d="M4581.229,1253.111a1.618,1.618,0,0,0,1.613-1.613v-10.474a1.618,1.618,0,0,0-1.613-1.613H4447.646a1.551,1.551,0,1,1,0-3.1h142.8a5.734,5.734,0,0,1,5.734,5.734v8.757a5.407,5.407,0,0,1-5.406,5.406H4447.646a1.55,1.55,0,1,1,0-3.1Z" fill="url(#linear-gradient-29)"/>
        </g>
        <path id="Path_175" data-name="Path 175" d="M3990.994,1262.347a4.727,4.727,0,0,1,1.265-4.313,6.4,6.4,0,0,1,4.635-1.9h607.575a7.224,7.224,0,0,1,5.826,2.769,5.332,5.332,0,0,1,.452,5.755l-6.584,12.376a9.4,9.4,0,0,1-8.37,4.649h-594.73c-3.344,0-6.219-2.059-6.854-4.911Z" fill="#7d97f4"/>
      </g>
      <g id="Group_59" data-name="Group 59">
        <g id="Group_55" data-name="Group 55">
          <path id="Path_176" data-name="Path 176" d="M3842.291,610.3s-36.189,98.654-97.852,129.487c0,0,20.524,33.487,31.234,35.518,0,0,65.872-84.309,72.588-153.381Z" fill="url(#linear-gradient-30)"/>
          <g id="Group_54" data-name="Group 54">
            <path id="Path_177" data-name="Path 177" d="M3845.764,628.252c.553,1.755-5.841,4.428-9.606-2.751-.131-3.44-2.224-18.18-.168-20.983,10.95-14.928,22.512-15.9,22.512-15.9,2.154,3.893,4.781,7.178,6.013,11.887a14.428,14.428,0,0,1-1.439,10.621c-1.808,3.257-4.274,7.49-6.6,10.8A14.251,14.251,0,0,1,3845.764,628.252Z" fill="url(#linear-gradient-31)"/>
          </g>
        </g>
        <g id="Group_57" data-name="Group 57">
          <path id="Path_178" data-name="Path 178" d="M3732.906,771.292l250.322-3.592a12.021,12.021,0,0,0,11.846-12.191l-3.629-252.91a12.02,12.02,0,0,0-12.191-11.846l-250.322,3.592a12.019,12.019,0,0,0-11.846,12.191l3.63,252.91A12.019,12.019,0,0,0,3732.906,771.292Z" fill="#dae3fe"/>
          <g id="Group_56" data-name="Group 56">
            <path id="Path_179" data-name="Path 179" d="M3744.134,699.481l51.086-73.591a3.085,3.085,0,0,1,4.861-.092l32.036,41.992,50.109-71.068a3.247,3.247,0,0,1,5.055-.128l79.989,102.384a3.037,3.037,0,0,1,.219,3.154,3.464,3.464,0,0,1-2.721,1.793l-105.5.123-52.268.061-60.383.071a3.315,3.315,0,0,1-2.542-1.7A3,3,0,0,1,3744.134,699.481Z" fill="#fff"/>
            <path id="Path_180" data-name="Path 180" d="M3780.03,580.2c.294,12.378,10.8,22.161,23.535,21.85,12.809-.312,23.006-10.706,22.71-23.215s-10.973-22.286-23.779-21.842C3789.765,557.429,3779.737,567.818,3780.03,580.2Z" fill="#fff"/>
          </g>
        </g>
        <path id="Path_181" data-name="Path 181" d="M3709.9,656.334s-12.721,6.188-15.06,13.3c-1.876,5.7-15.942,6.438-17.332,17.655A12.87,12.87,0,0,1,3666.74,698.6c-14.366,2.2-36.5,9.662-40.048,34.6-2.7,19.038,7,26.257,17.188,28.756a14.427,14.427,0,0,1,10.939,16.664c-1.451,7.245.713,15.619,13.263,22.242,28.125,14.84,56.211-35.158,56.211-35.158l5.756-87.3Z" fill="url(#linear-gradient-32)"/>
        <path id="Path_182" data-name="Path 182" d="M3594.3,1203.728l-1.82,14.962a6.181,6.181,0,0,1-5.421,5.407,95.676,95.676,0,0,1-20.023.313,5.293,5.293,0,0,1-4.445-6.864c1.836-5.776,5.2-14.446,10.037-19.548h16.6A5.112,5.112,0,0,1,3594.3,1203.728Z" fill="url(#linear-gradient-33)"/>
        <path id="Path_183" data-name="Path 183" d="M3724.293,1028.465l2.8,16.479s-9.381,95.021-11.05,133.03a29.775,29.775,0,0,0,4.408,16.926l16.311,26.489-41.456-24.463-.825-5.059,6.786-9.331-8.889-106.447a32.658,32.658,0,0,1,3.717-18.064l8.574-16.109Z" fill="url(#linear-gradient-34)"/>
        <path id="Path_184" data-name="Path 184" d="M3739.494,1225.227h-13.229a7.963,7.963,0,0,1-6.322-3.1c-4.124-5.359-12.669-15.814-16.755-16.087-5.5-.367-4.8,19.187-4.8,19.187h-3.083l-3.905-24.3a14.382,14.382,0,0,1,7.547-15.034h0s1.257,9.3,8.075,13.411,27.743,18.843,27.743,18.843a18.881,18.881,0,0,1,5.377.143C3744.319,1219.045,3743.736,1225.227,3739.494,1225.227Z" fill="url(#linear-gradient-35)"/>
        <path id="Path_185" data-name="Path 185" d="M3667.511,1036.292s-54.956,104.247-63.692,128.048-11.8,43.657-11.913,45.537c-.184,2.938-3.838,5.756-13.911,5.756-5.2,0-7.744-2.084-8.991-4.1a5.873,5.873,0,0,1-.222-5.688c3.179-6.434,13.267-26.994,17-36.319,4.461-11.133,14.056-61.59,19.319-79.133s11.211-36.572,34.128-54.1C3639.233,1036.292,3654.965,1020.883,3667.511,1036.292Z" fill="url(#linear-gradient-36)"/>
        <path id="Path_186" data-name="Path 186" d="M3702.229,865.478c14.176-60.071-21.737-94.046-21.737-94.046,22.66-21.751,63.947-31.649,63.947-31.649s39.4,28.8,34.723,51.347c-2.739,13.213-27.692,79.144-27.692,79.144S3728.4,881.194,3702.229,865.478Z" fill="#662d91"/>
        <path id="Path_187" data-name="Path 187" d="M3670.8,895.217c5.769-17.38,31.431-29.739,31.431-29.739,26.167,15.716,49.241,4.8,49.241,4.8s5.174,19.779,1.6,38.16-25.978,136.51-25.978,136.51c-35.307,7.154-89.607-7.2-89.607-7.2C3659.977,997.819,3665.028,912.6,3670.8,895.217Z" fill="#4042e2"/>
        <path id="Path_188" data-name="Path 188" d="M3718.684,700.086l-11.526,51.771c-1.1,4.56,3.053,3.814,7.664,2.945,7.55-1.424,17.281-4.355,20.534-10.23a5.571,5.571,0,0,0,.59-1.951l4.952-35.9a6.45,6.45,0,0,0-3.776-6.778l-9.555-4.237A6.449,6.449,0,0,0,3718.684,700.086Z" fill="url(#linear-gradient-37)"/>
        <g id="Group_58" data-name="Group 58">
          <path id="Path_189" data-name="Path 189" d="M3732.207,650.793s13.65,5.764,22.931,25.489,2.351,28.833-6.355,30.083-21.727,1.06-35.5-11.682S3714.462,643.961,3732.207,650.793Z" fill="url(#linear-gradient-38)"/>
          <path id="Path_190" data-name="Path 190" d="M3722.542,684.152s-10.3-28.859,15.287-29.2l6.021,4.208s9.387-16-6.021-23.638-33.441-1.328-40,19.43-7.677,34.655,3.232,44.587,15.4-1.33,15.4-1.33-5.94-9.289-3.522-14.259,8,1.028,8,1.028Z" fill="url(#linear-gradient-39)"/>
          <path id="Path_191" data-name="Path 191" d="M3719.673,687.366s-5.207-14.866-12.154-8.945,5.646,13.732,10.575,16.262Z" fill="url(#linear-gradient-40)"/>
        </g>
        <path id="Path_192" data-name="Path 192" d="M3674.12,787.423s105.427,128.734,184.193-17.846a18.12,18.12,0,0,0,.567-9.156c-.477-2.732,1.329-12.42,2.322-17.37a2.73,2.73,0,0,0-2.427-3.251h0a3.731,3.731,0,0,0-3.292,1.41l-14.388,18.321a7.683,7.683,0,0,0,4.073,9.118h0a3.79,3.79,0,0,1,1.405,5.723c-59.9,78.521-160.093-7.643-161.926-6.631C3678.141,771.331,3670.626,775.3,3674.12,787.423Z" fill="url(#linear-gradient-41)"/>
      </g>
      <g id="Group_65" data-name="Group 65">
        <g id="Group_61" data-name="Group 61">
          <circle id="Ellipse_4" data-name="Ellipse 4" cx="90.344" cy="90.344" r="90.344" transform="translate(4217.651 691.814)" fill="url(#linear-gradient-42)"/>
          <g id="Group_60" data-name="Group 60">
            <path id="Path_193" data-name="Path 193" d="M4278.665,804.716l-38.107-19.394v-6.246l38.107-22.066v10.631L4252.3,781.722l26.363,12.407Z" fill="#fff"/>
            <path id="Path_194" data-name="Path 194" d="M4319.2,748.4l-21.673,65.5-10.887-.111,21.5-65.238Z" fill="#fff"/>
            <path id="Path_195" data-name="Path 195" d="M4327.259,794.276l27.85-12.71-27.85-14.249V756.5l40.616,22.258V785.3l-40.616,19.754Z" fill="#fff"/>
          </g>
        </g>
        <g id="Group_62" data-name="Group 62">
          <circle id="Ellipse_5" data-name="Ellipse 5" cx="90.344" cy="90.344" r="90.344" transform="translate(4380.287 551.636)" fill="#4042e2"/>
          <path id="Path_196" data-name="Path 196" d="M4441.393,606.543V682.65c0,4.885,4.137,7.935,7.711,5.692l63.734-40.008c3.975-2.495,3.975-9.563,0-11.816L4449.1,600.383C4445.53,598.357,4441.393,601.658,4441.393,606.543Z" fill="#fff"/>
        </g>
        <g id="Group_64" data-name="Group 64">
          <circle id="Ellipse_6" data-name="Ellipse 6" cx="90.344" cy="90.344" r="90.344" transform="translate(4540.375 737.027) rotate(-45)" fill="#4042e2"/>
          <g id="Group_63" data-name="Group 63">
            <rect id="Rectangle_12" data-name="Rectangle 12" width="22.182" height="40.533" transform="translate(4615.091 734.352)" fill="#fff"/>
            <rect id="Rectangle_13" data-name="Rectangle 13" width="22.182" height="63.939" transform="translate(4651.041 710.946)" fill="#fff"/>
            <rect id="Rectangle_14" data-name="Rectangle 14" width="22.182" height="84.491" transform="translate(4687.755 690.394)" fill="#fff"/>
          </g>
        </g>
      </g>
    </g>
  </g>
</svg>
